<?xml version="1.0" encoding="UTF-8" standalone="no"?>
<!-- Created with Inkscape (http://www.inkscape.org/) -->

<svg
   width="512"
   height="512"
   viewBox="0 0 512 512"
   version="1.1"
   id="svg5"
   xml:space="preserve"
   inkscape:version="1.3 (0e150ed6c4, 2023-07-21)"
   sodipodi:docname="popcorn-pride.svg"
   inkscape:export-filename="popcorn.png"
   inkscape:export-xdpi="96"
   inkscape:export-ydpi="96"
   xmlns:inkscape="http://www.inkscape.org/namespaces/inkscape"
   xmlns:sodipodi="http://sodipodi.sourceforge.net/DTD/sodipodi-0.dtd"
   xmlns:xlink="http://www.w3.org/1999/xlink"
   xmlns="http://www.w3.org/2000/svg"
   xmlns:svg="http://www.w3.org/2000/svg"><sodipodi:namedview
     id="namedview7"
     pagecolor="#505050"
     bordercolor="#eeeeee"
     borderopacity="1"
     inkscape:showpageshadow="0"
     inkscape:pageopacity="0"
     inkscape:pagecheckerboard="0"
     inkscape:deskcolor="#505050"
     inkscape:document-units="px"
     showgrid="false"
     inkscape:zoom="1.4142136"
     inkscape:cx="264.10438"
     inkscape:cy="285.31759"
     inkscape:window-width="1920"
     inkscape:window-height="1009"
     inkscape:window-x="-8"
     inkscape:window-y="-6"
     inkscape:window-maximized="1"
     inkscape:current-layer="logo" /><defs
     id="defs2" /><g
     inkscape:label="Layer 1"
     inkscape:groupmode="layer"
     id="layer1"><g
       id="logo"
       transform="translate(167.53157,332.124)"><g
         id="gear"
         mask="url(#holes)"
         transform="matrix(4.8762042,0,0,4.8762034,88.46843,-76.123979)"><circle
           r="43"
           fill="none"
           stroke="#000000"
           stroke-width="9"
           id="circle135"
           cx="0"
           cy="0"
           style="stroke:#fffdfd;stroke-opacity:1" /><g
           id="cogs"><polygon
             id="cog"
             stroke="#000000"
             stroke-width="3"
             stroke-linejoin="round"
             points="46,3 51,0 46,-3 "
             style="stroke:#ffffff;stroke-opacity:1;fill:#ffffff;fill-opacity:1" /><use
             xlink:href="#cog"
             transform="rotate(11.25)"
             id="use138" /><use
             xlink:href="#cog"
             transform="rotate(22.5)"
             id="use140" /><use
             xlink:href="#cog"
             transform="rotate(33.75)"
             id="use142" /><use
             xlink:href="#cog"
             transform="rotate(45)"
             id="use144" /><use
             xlink:href="#cog"
             transform="rotate(56.25)"
             id="use146" /><use
             xlink:href="#cog"
             transform="rotate(67.5)"
             id="use148" /><use
             xlink:href="#cog"
             transform="rotate(78.75)"
             id="use150" /><use
             xlink:href="#cog"
             transform="rotate(90)"
             id="use152" /><use
             xlink:href="#cog"
             transform="rotate(101.25)"
             id="use154" /><use
             xlink:href="#cog"
             transform="rotate(112.5)"
             id="use156" /><use
             xlink:href="#cog"
             transform="rotate(123.75)"
             id="use158" /><use
             xlink:href="#cog"
             transform="rotate(135)"
             id="use160" /><use
             xlink:href="#cog"
             transform="rotate(146.25)"
             id="use162" /><use
             xlink:href="#cog"
             transform="rotate(157.5)"
             id="use164" /><use
             xlink:href="#cog"
             transform="rotate(168.75)"
             id="use166" /><use
             xlink:href="#cog"
             transform="scale(-1)"
             id="use168" /><use
             xlink:href="#cog"
             transform="rotate(-168.75)"
             id="use170" /><use
             xlink:href="#cog"
             transform="rotate(-157.5)"
             id="use172" /><use
             xlink:href="#cog"
             transform="rotate(-146.25)"
             id="use174" /><use
             xlink:href="#cog"
             transform="rotate(-135)"
             id="use176" /><use
             xlink:href="#cog"
             transform="rotate(-123.75)"
             id="use178" /><use
             xlink:href="#cog"
             transform="rotate(-112.5)"
             id="use180"
             style="fill:#000000;stroke:#000000;stroke-opacity:1" /><use
             xlink:href="#cog"
             transform="rotate(-101.25)"
             id="use182" /><use
             xlink:href="#cog"
             transform="rotate(-90)"
             id="use184" /><use
             xlink:href="#cog"
             transform="rotate(-78.75)"
             id="use186" /><use
             xlink:href="#cog"
             transform="rotate(-67.5)"
             id="use188" /><use
             xlink:href="#cog"
             transform="rotate(-56.25)"
             id="use190" /><use
             xlink:href="#cog"
             transform="rotate(-45)"
             id="use192" /><use
             xlink:href="#cog"
             transform="rotate(-33.75)"
             id="use194" /><use
             xlink:href="#cog"
             transform="rotate(-22.5)"
             id="use196" /><use
             xlink:href="#cog"
             transform="rotate(-11.25)"
             id="use198" /></g><g
           id="mounts"><polygon
             id="mount"
             stroke="#000000"
             stroke-width="6"
             stroke-linejoin="round"
             points="-7,-42 0,-35 7,-42 "
             style="stroke:#ffffff;stroke-opacity:1" /><use
             xlink:href="#mount"
             transform="rotate(72)"
             id="use202" /><use
             xlink:href="#mount"
             transform="rotate(144)"
             id="use204" /><use
             xlink:href="#mount"
             transform="rotate(-144)"
             id="use206" /><use
             xlink:href="#mount"
             transform="rotate(-72)"
             id="use208" /></g></g><mask
         id="holes"><rect
           x="-60"
           y="-60"
           width="120"
           height="120"
           fill="#ffffff"
           id="rect212" /><circle
           id="hole"
           cy="-40"
           r="3"
           cx="0" /><use
           xlink:href="#hole"
           transform="rotate(72)"
           id="use215" /><use
           xlink:href="#hole"
           transform="rotate(144)"
           id="use217" /><use
           xlink:href="#hole"
           transform="rotate(-144)"
           id="use219" /><use
           xlink:href="#hole"
           transform="rotate(-72)"
           id="use221" /></mask><g
         aria-label="p_"
         transform="scale(1.0171898,0.9831007)"
         id="text492"
         style="font-weight:bold;font-size:340.671px;font-family:'Noto Sans';-inkscape-font-specification:'Noto Sans Bold';stroke-width:1.99611"><path
           d="m 25.652691,-213.01961 c 20.894487,0 37.81448,8.1761 50.759977,24.52831 12.945498,16.12509 19.418247,39.97206 19.418247,71.54091 0,31.568845 -6.699863,55.642929 -20.099589,72.22225 -13.399725,16.352207 -30.546832,24.528311 -51.441319,24.528311 -13.399726,0 -24.0740834,-2.384697 -32.0230732,-7.154091 -7.9489898,-4.996507 -14.4217388,-10.5608 -19.4182468,-16.692878 h -2.725368 c 1.816912,9.538787 2.725368,18.623347 2.725368,27.253679 V 58.154499 H -77.91129 V -209.6129 l 31.67875,0 16.69653,24.18764 h 2.384697 c 4.996508,-7.49476 11.696371,-13.96751 20.0995888,-19.41825 8.4032177,-5.45073 19.3046892,-8.1761 32.7044152,-8.1761 z m -16.3522077,40.53985 c -13.1726115,0 -22.4842853,4.08805 -27.9350213,12.26415 -5.223622,8.17611 -8.062547,20.66738 -8.516775,37.47381 v 5.45074 c 0,17.942005 2.611811,31.795958 7.835433,41.56186 5.450736,9.538787 15.2166378,14.308181 29.2977053,14.308181 11.5828137,0 20.0995887,-4.769394 25.5503247,-14.308181 5.677849,-9.765902 8.516774,-23.733412 8.516774,-41.90253 0,-36.56535 -11.582814,-54.84803 -34.7484407,-54.84803 z"
           id="path544"
           sodipodi:nodetypes="scscscccsccccccsssccscscss"
           style="fill:#ffffff;fill-opacity:1" /><path
           d="M 251.85804,30.219478 H 110.47958 V 7.0538503 h 142.50103 z"
           id="path546"
           sodipodi:nodetypes="ccccc"
           style="fill:#ffffff;fill-opacity:1" /></g><path
         style="fill:#ff002e;fill-opacity:1;stroke:#ff002e;stroke-width:1;stroke-linecap:square;stroke-dasharray:none;stroke-opacity:1"
         d="m 191.06559,41.886586 c -0.25756,1.519818 -0.11225,3.194169 -0.93043,4.601225 -1.00894,2.038562 -3.02008,3.29359 -5.11623,3.99137 -8.93517,3.712608 -17.85612,7.474491 -26.86411,11.001844 -2.59962,0.488675 -5.35735,-0.450851 -7.08981,-2.452926 -0.17042,-0.165768 -0.84692,-0.830565 -0.65668,-0.153108 1.05452,3.012911 0.006,6.714624 -2.80524,8.382859 -8.1513,5.762856 -16.60907,11.128495 -24.76709,16.850189 12.43482,0.24018 24.8776,0.111631 37.3156,0.150465 6.59153,-7.5e-5 13.18307,-1.49e-4 19.7746,-2.22e-4 13.19706,-5.834267 27.08101,-10.084722 41.23373,-12.836001 -1.15705,-1.733331 -2.86412,-3.110772 -4.27793,-4.660706 -2.5163,-2.678236 -5.36022,-5.089545 -7.53947,-8.060702 -2.5303,-4.304539 -2.71553,-9.855149 -0.39407,-14.286239 0.19445,-0.596149 -1.15177,0.108353 -1.45088,-0.01114 -3.35153,0.517627 -6.65485,1.478461 -10.03961,1.702342 -2.48127,-0.112662 -4.68528,-1.627956 -5.93687,-3.732229 -0.13962,-0.159528 -0.25393,-0.407224 -0.45551,-0.487021 z"
         id="path18"
         transform="translate(-167.53157,-332.124)" /><path
         style="fill:#ff002e;fill-opacity:1;stroke:#ff002e;stroke-width:1;stroke-linecap:square;stroke-dasharray:none;stroke-opacity:1"
         d="m 117.66467,42.067707 c -3.94319,-0.03507 -7.40803,3.748089 -6.98507,7.682502 0.33568,9.400788 0.89418,18.793804 1.23251,28.194321 0.0192,2.702074 1.81949,5.039847 4.10943,6.314389 2.16706,-0.06314 4.41272,0.124936 6.53138,-0.09289 8.39495,-5.818483 16.99609,-11.340216 25.30647,-17.279236 2.34098,-1.438741 3.10674,-4.416502 2.66771,-6.997419 -0.17166,-0.421453 0.17175,-1.416298 -0.31517,-1.578753 0.0743,-0.309852 0.0939,-0.42246 -0.17953,-0.361924 0.30412,-0.484171 -0.31721,-0.291606 -0.42431,-0.707611 -1.89346,-2.708291 -5.35638,-3.424902 -8.13987,-4.869586 -7.36599,-3.366888 -14.61406,-7.010102 -22.06078,-10.1892 -0.57364,-0.106357 -1.16083,-0.120891 -1.74277,-0.114593 z"
         id="path19"
         transform="translate(-167.53157,-332.124)" /><path
         style="fill:#ff002e;fill-opacity:1;stroke:#ff002e;stroke-width:1;stroke-linecap:square;stroke-dasharray:none;stroke-opacity:1"
         d="m 80.022163,72.93268 c -4.126155,0.06797 -7.828458,4.16008 -6.963749,8.304805 0.160876,1.022619 0.434546,2.022515 0.700927,3.021434 13.568479,-0.04481 27.140459,0.10906 40.706599,-0.136556 -0.45792,-1.250366 -1.59239,-2.380915 -2.70344,-3.178681 -2.47036,-1.470954 -5.44817,-1.612707 -8.15459,-2.440698 -7.643494,-1.827253 -15.241227,-3.875032 -22.916969,-5.549932 -0.22228,-0.01964 -0.445715,-0.02651 -0.668778,-0.02037 z"
         id="path20"
         transform="translate(-167.53157,-332.124)" /><path
         style="fill:#ff002e;fill-opacity:1;stroke:#ff002e;stroke-width:1;stroke-linecap:square;stroke-dasharray:none;stroke-opacity:1"
         d="m 111.55814,75.135093 c -1.63034,1.224952 -3.26635,2.523248 -4.72091,3.927673 1.92605,0.679616 4.03302,1.061089 5.74143,2.245385 0.23717,-0.322369 -0.37676,-0.927465 -0.36829,-1.345512 -0.50623,-1.558099 -0.30172,-3.275672 -0.65223,-4.827546 z"
         id="path21"
         transform="translate(-167.53157,-332.124)" /><path
         style="fill:#ff002e;fill-opacity:1;stroke:#ff002e;stroke-width:1;stroke-linecap:square;stroke-dasharray:none;stroke-opacity:1"
         d="m 160.2942,19.151983 c -2.78214,0.03236 -5.38324,2.128387 -6.24308,4.749241 -1.66913,8.829834 -2.65096,17.781042 -4.24122,26.62185 -0.47405,2.702408 -1.02889,6.01111 1.1106,8.177162 1.53526,1.708526 3.71353,2.961623 6.07883,2.733732 1.72497,0.136127 3.20045,-1.039786 4.80872,-1.517379 8.49441,-3.466399 17.0242,-6.863596 25.4117,-10.57941 2.59918,-1.345574 3.69969,-4.370629 3.64503,-7.157273 0.0618,-0.717907 0.0692,-1.369915 -0.43773,-1.896665 -1.39808,-3.123454 -4.79674,-4.467147 -7.30055,-6.527972 -6.48317,-4.681588 -12.77781,-9.635195 -19.41647,-14.094939 -1.04415,-0.626682 -2.2536,-0.500141 -3.41583,-0.508347 z"
         id="path22"
         transform="translate(-167.53157,-332.124)" /><path
         style="fill:#ff002e;fill-opacity:1;stroke:#ff002e;stroke-width:0.0132011;stroke-linecap:square;stroke-dasharray:none;stroke-opacity:1"
         d="m 148.53442,50.939747 c -1.41639,0.771254 -2.9891,1.476814 -4.26127,2.389263 1.68297,1.079191 3.58479,1.845047 5.08188,3.216242 0.22406,-2.019572 -0.0558,-4.169671 0.37243,-6.206481 -0.39768,0.200325 -0.79536,0.400651 -1.19304,0.600976 z"
         id="path23"
         transform="translate(-167.53157,-332.124)" /><path
         style="fill:#ff002e;fill-opacity:1;stroke:#ff002e;stroke-width:1;stroke-linecap:square;stroke-dasharray:none;stroke-opacity:1"
         d="m 255.76541,0.14483275 c -2.38934,0.0142508 -4.63514,1.36765055 -5.78918,3.45593225 -4.61381,7.102627 -8.67968,14.556137 -13.25713,21.675892 -1.36227,2.142227 -3.03846,4.496248 -2.61717,7.180521 0.14296,1.475923 0.81164,2.82952 1.6199,4.049588 -0.68445,-0.222861 -2.75618,0.492926 -2.37072,-0.453856 0.77008,-1.957745 0.71763,-4.322993 -0.21781,-6.220865 -1.67119,-2.713856 -4.2381,-4.714931 -6.27236,-7.142159 -5.03299,-5.396025 -9.85421,-10.998399 -14.99927,-16.283999 -3.40061,-2.8732265 -9.29506,-1.3947992 -10.90098,2.7656867 -3.36838,8.8597943 -6.39941,17.8505683 -9.8013,26.6935803 -0.643,1.938286 -0.83533,4.196914 0.10992,6.054855 1.43989,2.169903 3.72091,4.204249 6.50156,3.974147 3.78374,-0.113244 7.4228,-1.454763 11.18077,-1.671465 0.0528,0.683343 -0.58568,1.446277 -0.74613,2.161987 -1.20333,3.721213 -0.96642,7.988235 0.83558,11.477437 1.69363,2.9294 4.39662,5.082888 6.6435,7.566698 6.18476,6.315905 12.44061,12.561593 18.67581,18.82756 14.3968,8.48e-4 28.7936,0.0017 43.1904,0.0025 4.96567,-4.935098 9.83924,-9.974714 14.99395,-14.706662 3.19111,-3.232081 6.5282,-6.344925 9.48565,-9.792673 3.13224,-4.3976 3.68728,-10.571069 1.09977,-15.355455 0.0195,-0.490641 1.24773,0.191692 1.64616,0.107425 3.1261,0.520796 6.2065,1.399997 9.36559,1.672267 3.2222,0.02224 6.18315,-2.443357 7.1089,-5.38905 0.27489,-0.851636 0.0962,-2.02712 0.0958,-2.987057 -0.44678,-2.734512 -1.9386,-5.163103 -2.72731,-7.803564 -2.621,-7.004457 -4.91288,-14.135599 -7.74454,-21.0587846 -1.68168,-4.3550617 -8.2665,-5.460564 -11.30358,-1.9273869 -6.67359,6.9878405 -13.02959,14.2733325 -19.65374,21.3068515 -2.00385,2.172132 -2.21684,5.492562 -1.15421,8.14533 -0.77047,-0.03966 -1.75053,0.237813 -2.41854,-0.163932 1.1017,-1.37872 1.7381,-3.164288 1.53045,-4.956144 0.1817,-1.111166 -0.19005,-2.089227 -0.77892,-3.015068 -2.26262,-3.971991 -4.78898,-7.793146 -7.09914,-11.740465 -2.94461,-4.767796 -5.66984,-9.6871394 -8.88689,-14.277227 -1.36089,-1.44954923 -3.36686,-2.22693155 -5.3448,-2.17249125 z m 0.20563,46.17045225 c 6.28767,-0.197111 12.35456,4.274036 14.0889,10.310249 1.09471,3.925329 0.73003,8.365295 -1.4344,11.874555 -2.75324,4.69366 -8.26469,7.58264 -13.6973,7.077459 -7.2917,-0.24233 -13.50801,-6.889583 -13.6293,-14.122851 -0.33289,-6.709252 4.53871,-13.226961 11.08785,-14.760738 1.17192,-0.281353 2.38056,-0.390119 3.58425,-0.378674 z"
         id="path24"
         transform="translate(-167.53157,-332.124)" /><path
         style="fill:#ff002e;fill-opacity:1;stroke:#ff002e;stroke-width:1;stroke-linecap:square;stroke-dasharray:none;stroke-opacity:1"
         d="m 191.86153,33.560147 c -2.03526,0.545272 -4.11981,1.114639 -6.07068,1.842744 1.42879,1.27969 3.17777,2.28226 4.22208,3.953787 0.11497,0.110627 0.46619,0.825769 0.48078,0.304761 0.0846,-1.777034 0.39398,-3.542168 1.11528,-5.180032 0.0653,-0.27737 0.30109,-0.669431 0.25254,-0.92126 z"
         id="path25"
         transform="translate(-167.53157,-332.124)" /><path
         style="fill:#ff002e;fill-opacity:1;stroke:#ff002e;stroke-width:1;stroke-linecap:square;stroke-dasharray:none;stroke-opacity:1"
         d="m 236.16348,25.278037 c -1.95911,0.254314 -3.97428,0.302222 -5.9003,0.671194 1.11938,1.707814 2.85706,3.086771 3.42147,5.134341 0.0346,0.4776 0.33034,0.137324 0.32142,-0.153506 0.34338,-2.112681 1.51499,-3.950816 2.65124,-5.719554 -0.16461,0.02251 -0.32922,0.04502 -0.49383,0.06752 z"
         id="path26"
         transform="translate(-167.53157,-332.124)" /><path
         style="fill:#ff002e;fill-opacity:1;stroke:#ff002e;stroke-width:1;stroke-linecap:square;stroke-dasharray:none;stroke-opacity:1"
         d="m 275.42,25.268133 c 0.84694,1.788883 2.36926,3.36149 2.54317,5.404978 0.12348,0.257764 -0.1734,0.966555 0.17514,1.006702 0.34165,-1.089207 0.69947,-2.219323 1.49567,-3.087222 0.6533,-0.919161 1.63597,-1.601934 2.2121,-2.556704 -0.40116,-0.413038 -1.19176,-0.188256 -1.72847,-0.340873 -1.56566,-0.14159 -3.12911,-0.326365 -4.69761,-0.426881 z"
         id="path27"
         transform="translate(-167.53157,-332.124)" /><path
         style="fill:#ff002e;fill-opacity:1;stroke:#ff002e;stroke-width:1;stroke-linecap:square;stroke-dasharray:none;stroke-opacity:1"
         d="m 320.98533,41.835954 c -0.79608,1.281552 -1.75073,2.516674 -3.0879,3.284169 -1.62549,1.100489 -3.66838,1.294214 -5.55327,0.897041 -3.0379,-0.460113 -6.05981,-1.205105 -9.07097,-1.694506 0.84424,2.045754 1.53711,4.198226 1.53101,6.43869 0.0747,3.872079 -1.28192,7.849749 -4.09336,10.57871 -3.06856,3.337792 -6.44097,6.385809 -9.48605,9.743026 -0.2733,0.191585 -0.25997,0.593953 0.1427,0.4846 13.91868,2.70662 27.56676,6.897448 40.52913,12.659502 19.12048,-0.02054 38.24166,0.07472 57.36165,-0.07338 0.12053,-0.180303 -0.97176,-0.680993 -1.28705,-0.972214 -7.94549,-5.370493 -15.99932,-10.582776 -23.86274,-16.073382 -2.08404,-1.399027 -3.14025,-4.032421 -2.85286,-6.49661 0.18108,-2.67592 2.11364,-5.049366 4.56495,-6.046402 0.73192,-0.378486 1.53303,-0.690858 2.22937,-1.099495 -1.86668,-1.144087 -3.80808,-2.217925 -5.79181,-3.129762 -0.24804,0.530689 0.13413,1.25591 0.13415,1.84387 0.36747,2.087878 0.31393,4.39447 -0.97551,6.17827 -1.76495,2.814497 -5.61906,4.092852 -8.68523,2.748924 -6.89912,-2.730865 -13.72346,-5.649905 -20.58555,-8.473106 -2.56784,-1.107859 -5.19899,-2.090182 -7.71623,-3.303399 -2.00354,-1.329472 -3.40076,-3.618257 -3.35642,-6.058302 -0.0248,-0.466087 0.0516,-1.011875 -0.088,-1.436247 z"
         id="path28"
         transform="translate(-167.53157,-332.124)" /><path
         style="fill:#ff002e;fill-opacity:1;stroke:#ff002e;stroke-width:1;stroke-linecap:square;stroke-dasharray:none;stroke-opacity:1"
         d="m 350.91671,19.02594 c -2.47127,-0.05714 -4.33679,1.795277 -6.26605,3.064713 -6.14751,4.443325 -12.15856,9.078104 -18.34507,13.464844 -1.98947,1.461264 -4.36906,2.960069 -4.99164,5.523057 -0.77845,3.264228 0.69245,7.156003 3.89819,8.507867 7.03244,3.093287 14.1676,5.949214 21.26013,8.901655 2.53427,0.986519 5.01076,2.160877 7.61156,2.954304 2.31174,0.343132 4.8012,-0.337838 6.41439,-2.081107 1.44092,-1.429732 2.15855,-3.472463 1.96601,-5.489608 -0.28379,-3.890205 -1.0735,-7.72325 -1.57985,-11.587851 -0.91003,-5.989446 -1.72942,-11.995244 -2.74817,-17.966651 -0.85384,-3.091246 -3.97527,-5.495938 -7.2195,-5.291223 z"
         id="path29"
         transform="translate(-167.53157,-332.124)" /><path
         style="fill:#ff002e;fill-opacity:1;stroke:#ff002e;stroke-width:1;stroke-linecap:square;stroke-dasharray:none;stroke-opacity:1"
         d="m 393.97148,41.981132 c -2.03894,-0.0075 -3.74043,1.284707 -5.57156,2.002013 -7.84388,3.677498 -15.71648,7.299777 -23.4847,11.134436 -2.0623,1.280859 -3.65691,3.557457 -3.60446,6.057627 -0.0899,2.216987 0.90078,4.51697 2.78993,5.749196 5.4358,3.955967 11.11689,7.5617 16.67586,11.340427 2.92601,1.946209 5.83392,3.945768 8.75114,5.889203 2.13876,0.181621 4.29717,0.04226 6.44342,0.08553 2.51368,-1.220955 4.15599,-3.91582 4.15502,-6.703581 0.30887,-9.169391 0.8762,-18.328852 1.20755,-27.497374 0.14118,-1.743085 -0.17418,-3.560929 -1.27059,-4.970031 -1.36961,-1.948054 -3.71567,-3.120742 -6.09161,-3.087446 z"
         id="path30"
         transform="translate(-167.53157,-332.124)" /><path
         style="fill:#ff002e;fill-opacity:1;stroke:#ff002e;stroke-width:1;stroke-linecap:square;stroke-dasharray:none;stroke-opacity:1"
         d="m 431.75281,72.945411 c -2.78909,0.353781 -5.49154,1.211529 -8.2322,1.822968 -7.09621,1.771961 -14.21322,3.466446 -21.29763,5.281964 -2.09706,0.543418 -3.8596,2.149259 -4.69611,4.12935 13.58879,0.110928 27.17935,0.04218 40.76884,0.06212 0.60749,-2.200696 1.26732,-4.6513 0.22801,-6.835959 -1.06389,-2.687689 -3.87451,-4.56383 -6.77091,-4.460446 z"
         id="path31"
         transform="translate(-167.53157,-332.124)" /><path
         style="fill:#ff002e;fill-opacity:1;stroke:#ff002e;stroke-width:1;stroke-linecap:square;stroke-dasharray:none;stroke-opacity:1"
         d="m 400.35773,75.03417 c -0.26327,2.145352 -0.0371,4.457797 -1.23503,6.374766 -0.32123,0.53131 0.30492,0.135349 0.44689,-0.0529 1.59002,-1.39551 3.84068,-1.508 5.71653,-2.208723 -1.46528,-1.45828 -3.13245,-2.722449 -4.74923,-4.013433 -0.058,-0.02083 -0.11264,-0.09551 -0.17916,-0.09971 z"
         id="path32"
         transform="translate(-167.53157,-332.124)" /><path
         style="fill:#ff002e;fill-opacity:1;stroke:#ff002e;stroke-width:1;stroke-linecap:square;stroke-dasharray:none;stroke-opacity:1"
         d="m 320.16828,33.536288 c -0.12158,0.370737 0.32023,0.846822 0.37184,1.253706 0.58709,1.542222 1.00371,3.153513 0.95772,4.815175 0.003,0.620092 0.417,-0.133426 0.52669,-0.323893 1.06294,-1.597075 2.78088,-2.561453 4.14826,-3.842371 -0.18034,-0.285519 -0.80093,-0.264799 -1.11766,-0.44232 -1.62477,-0.498134 -3.24401,-1.029948 -4.88685,-1.460297 z"
         id="path33"
         transform="translate(-167.53157,-332.124)" /><path
         style="fill:#ff002e;fill-opacity:1;stroke:#ff002e;stroke-width:0.0144052;stroke-linecap:square;stroke-dasharray:none;stroke-opacity:1"
         d="m 234.23357,34.907205 c -0.0859,0.243873 -0.12458,0.504517 -0.20855,0.750434 -0.0409,0.134813 -0.0875,0.267783 -0.13253,0.401225 0.29958,-0.02119 0.60321,-0.0435 0.89909,-0.07945 -0.18837,-0.344157 -0.3642,-0.695393 -0.53558,-1.048093 -0.007,-0.0077 -0.0117,-0.02177 -0.0224,-0.02411 z"
         id="path34"
         transform="translate(-167.53157,-332.124)" /><path
         style="fill:#ff002e;fill-opacity:1;stroke:#ff002e;stroke-width:0.00509302;stroke-linecap:square;stroke-dasharray:none;stroke-opacity:1"
         d="m 277.78609,34.912372 c -0.0343,0.05404 -0.0548,0.117583 -0.0857,0.174297 -0.14066,0.293328 -0.29831,0.57839 -0.47412,0.852143 -0.0126,0.02608 -0.0384,0.05109 -0.0406,0.07993 0.16219,0.0076 0.3252,-2.03e-4 0.48755,-0.0052 0.12695,-0.0082 0.25597,-0.01493 0.38134,-0.02901 -0.0638,-0.224942 -0.12942,-0.4496 -0.18132,-0.677734 -0.0324,-0.130488 -0.0551,-0.26392 -0.0858,-0.394287 -4e-4,-2.29e-4 -8.9e-4,-2.75e-4 -10e-4,-1.89e-4 z"
         id="path35"
         transform="translate(-167.53157,-332.124)" /><path
         style="fill:#f57f29;fill-opacity:1;stroke:#f57f29;stroke-width:1;stroke-linecap:square;stroke-dasharray:none;stroke-opacity:1"
         d="m 49.516884,110.71302 c -3.854451,-0.34562 -7.310865,3.03998 -7.51666,6.81064 -0.0059,2.40342 1.421976,4.51528 2.279346,6.68809 3.39602,7.3258 6.951305,14.58312 10.214149,21.96619 1.027236,2.40017 3.25768,4.21923 5.824506,4.67349 0.04609,0.51879 -0.5855,1.22141 -0.937188,0.45606 -1.92784,-1.89533 -4.819352,-2.32155 -7.378236,-1.74308 -6.333725,1.22789 -12.756496,1.95648 -19.127715,2.97743 -3.069206,0.531 -6.198413,0.81995 -9.218327,1.57994 -4.034936,1.42704 -6.011753,6.86584 -3.502088,10.42955 1.425136,2.2295 3.073097,4.30546 4.617777,6.45158 42.303895,-0.0692 84.607792,-0.13831 126.911692,-0.20722 5.20892,-5.11451 12.5561,-7.34487 19.66691,-8.05096 5.24899,-0.25846 10.62556,-0.49182 15.72274,1.03351 4.57703,1.25127 8.89326,3.63122 12.22913,7.02127 19.6444,-0.0224 39.2898,0.0548 58.93355,-0.0694 -3.70897,-10.76978 -9.55989,-20.89139 -17.68241,-28.93753 -8.65555,-8.87139 -19.95091,-15.16304 -32.12955,-17.56843 -10.12877,-2.04032 -20.64587,-1.79963 -30.78641,0.0286 -8.69292,1.58291 -16.79115,5.62853 -23.68431,11.09784 -5.32599,4.14021 -10.10586,9.03843 -13.95686,14.58406 -0.87063,-0.10639 -1.94595,0.18224 -2.70222,-0.14481 -5.65652,-7.93639 -11.31315,-15.8727 -16.96989,-23.80893 -10.69099,0 -21.381982,0 -32.072973,0 -0.004,11.43552 -0.0081,22.87105 -0.0121,34.30658 -1.722618,-3.16728 -3.06275,-6.59455 -5.276688,-9.46362 -3.285976,-3.93219 -8.686187,-5.93328 -13.740011,-5.03207 -1.0642,0.25801 0.29474,-0.91006 0.393874,-1.31275 4.914746,-7.53858 10.11201,-14.89713 14.824069,-22.56524 1.232268,-2.86474 0.209009,-6.30451 -2.073496,-8.33759 -0.166176,-0.466 -0.464586,-0.5318 -0.903055,-0.62358 -2.276874,-1.44915 -5.126518,-0.9537 -7.686187,-1.2016 -8.08937,-0.282 -16.168889,-0.87579 -24.261373,-1.03805 z"
         id="path39"
         transform="translate(-167.53157,-332.124)" /><path
         style="fill:#f57f29;fill-opacity:1;stroke:#f57f29;stroke-width:1;stroke-linecap:square;stroke-dasharray:none;stroke-opacity:1"
         d="m 115.44762,84.733843 c -0.51484,-0.14727 -1.00438,0.120734 -0.62772,0.67578 0.37648,1.787638 0.0876,3.799754 -0.87377,5.358494 -7.13582,7.530593 -14.480023,14.865423 -21.895124,22.120853 -1.967185,2.24466 -5.329784,2.44216 -7.998354,1.59097 0.749322,1.34999 1.402915,2.85714 1.427319,4.45544 0.326387,2.41217 -1.28761,4.37848 -2.453748,6.30996 -4.234934,6.64486 -8.670741,13.15865 -13.029351,19.72237 3.098834,0.0548 6.314449,0.32165 9.039155,1.9484 3.839256,1.91 6.076715,5.76173 7.902138,9.46347 0.271761,0.67155 0.719839,1.04096 0.56062,-0.0148 0.207889,-10.31634 0.123489,-20.63629 0.182643,-30.95421 11.123899,-0.0246 22.247792,-0.0492 33.371692,-0.0739 8.53481,-8.65694 17.72002,-16.70274 27.75135,-23.58998 8.76543,-6.124051 18.15153,-11.292015 27.74378,-15.992265 0.4007,-0.271621 2.26195,-0.947586 0.78914,-0.79011 -20.6297,-0.11292 -41.2598,-0.194318 -61.88977,-0.230472 z"
         id="path40"
         transform="translate(-167.53157,-332.124)" /><path
         style="fill:#f57f29;fill-opacity:1;stroke:#f57f29;stroke-width:1;stroke-linecap:square;stroke-dasharray:none;stroke-opacity:1"
         d="m 94.214181,84.839523 c -6.751011,0.03993 -13.502284,0.0614 -20.253029,0.130191 1.696856,7.208237 3.660528,14.370564 5.256632,21.592176 0.359393,1.81182 0.778452,3.72783 1.801975,5.29388 0.911294,0.70206 1.931598,1.28292 2.706303,2.16644 1.68977,1.01838 3.840756,0.72259 5.690813,0.35492 1.938009,-0.67197 3.149964,-2.51237 4.663756,-3.80155 6.482599,-6.48002 13.072089,-12.862897 19.318639,-19.572229 1.49882,-1.669366 1.6723,-4.191644 1.03738,-6.265051 -6.74082,0.03374 -13.48165,0.06748 -20.222469,0.101223 z"
         id="path41"
         transform="translate(-167.53157,-332.124)" /><path
         style="fill:#f57f29;fill-opacity:1;stroke:#f57f29;stroke-width:1;stroke-linecap:square;stroke-dasharray:none;stroke-opacity:1"
         d="m 78.970136,106.91363 c -1.342313,1.30907 -2.41817,2.89735 -3.651376,4.31792 1.790782,0.0947 3.729878,0.13727 5.395099,0.62772 -0.764794,-1.57436 -1.160655,-3.30562 -1.701068,-4.94182 -0.01325,-0.006 -0.02852,-0.006 -0.04266,-0.004 z"
         id="path42"
         transform="translate(-167.53157,-332.124)" /><path
         style="fill:#f57f29;fill-opacity:1;stroke:#f57f29;stroke-width:1;stroke-linecap:square;stroke-dasharray:none;stroke-opacity:1"
         d="m 53.068629,144.72643 c -0.848867,1.42569 -1.775931,2.95273 -2.398812,4.42711 1.592161,-0.23834 3.202211,-0.43007 4.821498,-0.35587 -1.076001,-1.19488 -1.577596,-2.75554 -2.422686,-4.07124 z"
         id="path43"
         transform="translate(-167.53157,-332.124)" /><path
         style="fill:#f57f29;fill-opacity:1;stroke:#f57f29;stroke-width:1;stroke-linecap:square;stroke-dasharray:none;stroke-opacity:1"
         d="m 251.89471,84.914327 c -5.54036,0.037 -11.11815,-0.03362 -16.63571,0.133055 3.86228,4.136189 7.97539,8.048543 12.11627,11.908308 3.05735,2.365093 7.10542,3.35678 10.91755,2.700065 2.86723,-0.463407 5.64498,-1.751201 7.61903,-3.920079 3.73217,-3.53528 7.32971,-7.208835 10.98545,-10.822304 -8.3342,6.37e-4 -16.6684,-0.0036 -25.00259,9.55e-4 z"
         id="path44"
         transform="translate(-167.53157,-332.124)" /><path
         style="fill:#f57f29;fill-opacity:1;stroke:#f57f29;stroke-width:1;stroke-linecap:square;stroke-dasharray:none;stroke-opacity:1"
         d="m 396.56416,84.71379 c -20.73507,0.102752 -41.47292,-0.08924 -62.20741,0.149289 -1.07663,-0.117634 0.1015,0.455873 0.42304,0.608934 17.79544,8.220686 34.26432,19.299027 48.68643,32.567957 14.56779,13.45921 26.95004,29.25142 36.65762,46.54192 0.27357,0.19056 0.68236,1.66103 0.99887,0.81743 2.62011,-4.63521 4.74033,-9.55686 7.57332,-14.06629 2.79506,-3.56868 7.29135,-5.89406 11.8785,-5.54062 0.9977,0.0205 2.00501,0.0198 2.98357,0.24134 -5.22621,-7.91168 -10.67136,-15.6835 -15.69164,-23.72843 -1.45012,-2.717 -0.68715,-6.2959 1.52317,-8.38815 0.4771,-0.66435 -1.27123,0.36995 -0.96741,0.19241 -2.82466,1.59886 -6.64975,0.9569 -8.77553,-1.50641 -7.0312,-6.82875 -13.98602,-13.741599 -20.7738,-20.812948 -1.85196,-1.777538 -2.15232,-4.636239 -1.56164,-6.996536 -0.2095,-0.134712 -0.50804,-0.06209 -0.74709,-0.0799 z"
         id="path45"
         transform="translate(-167.53157,-332.124)" /><path
         style="fill:#f57f29;fill-opacity:1;stroke:#f57f29;stroke-width:1;stroke-linecap:square;stroke-dasharray:none;stroke-opacity:1"
         d="m 461.65359,110.72671 c -9.1145,0.27549 -18.21754,0.86287 -27.33006,1.19897 -1.67529,-0.002 -3.46955,0.54352 -4.63755,1.7537 -1.64174,1.94524 -2.97314,4.62188 -2.14193,7.21363 0.75536,2.31787 2.43911,4.19643 3.66203,6.27801 4.1968,6.36792 8.45035,12.6982 12.67924,19.0448 -3.62421,-0.4914 -7.56263,-0.4713 -10.75443,1.55857 -2.93066,1.61501 -4.96324,4.38195 -6.40586,7.33448 -1.94431,3.49958 -3.58666,7.1778 -5.64275,10.60653 -0.39442,0.3755 -0.39919,1.15708 -0.76578,1.63153 -0.54085,1.10775 -1.12592,2.19315 -1.68905,3.2896 23.00168,-0.0209 46.00457,0.0787 69.005,-0.21549 1.64324,-2.42995 3.76161,-4.599 4.93482,-7.31358 0.37747,-1.575 0.4725,-3.33742 -0.085,-4.87338 -1.10054,-2.66326 -3.76471,-4.55157 -6.65214,-4.67465 -9.10358,-1.38861 -18.21186,-2.7652 -27.31003,-4.17798 -2.2437,-0.31521 -4.42269,0.59211 -6.13008,1.99774 -0.40975,0.39469 -1.30945,-0.66837 -0.44182,-0.63472 2.83951,-0.41152 4.93111,-2.77937 5.92815,-5.34401 3.7665,-8.64043 8.08853,-17.04275 11.84553,-25.68744 0.71535,-2.82343 -0.31701,-6.01059 -2.741,-7.69173 -1.50302,-1.23898 -3.46294,-1.36391 -5.3273,-1.29458 z"
         id="path46"
         transform="translate(-167.53157,-332.124)" /><path
         style="fill:#f57f29;fill-opacity:1;stroke:#f57f29;stroke-width:1;stroke-linecap:square;stroke-dasharray:none;stroke-opacity:1"
         d="m 397.32812,85.658226 c -0.35933,2.264937 0.24845,4.717991 2.00506,6.273009 6.58539,6.818253 13.31602,13.497925 20.07906,20.139805 1.49393,1.66732 3.6077,2.89625 5.91189,2.7008 1.53615,-0.0455 2.95255,-0.77199 4.30074,-1.39103 1.65572,-1.3565 2.45251,-3.38699 2.81714,-5.44033 1.82371,-7.67346 3.81046,-15.40374 5.63122,-23.017877 -6.25606,-0.290212 -12.53265,-0.11495 -18.79674,-0.174166 -7.27814,-0.0013 -14.55628,-2.19e-4 -21.83442,-5.88e-4 -0.038,0.303459 -0.076,0.606918 -0.11395,0.910377 z"
         id="path47"
         transform="translate(-167.53157,-332.124)" /><path
         style="fill:#ffee00;fill-opacity:1;stroke:#f57f29;stroke-width:1;stroke-linecap:square;stroke-dasharray:none;stroke-opacity:0.98823529"
         d="m 432.96398,106.91458 c -0.55613,1.6513 -0.89821,3.41891 -1.804,4.95145 -0.72405,0.9194 0.0779,0.58269 0.63133,0.32715 1.63229,-0.47347 3.39416,-0.39667 5.03158,-0.64682 -1.09529,-1.6229 -2.50077,-3.19454 -3.85891,-4.63178 z"
         id="path48"
         transform="translate(-167.53157,-332.124)" /><path
         style="fill:#f57f29;fill-opacity:1;stroke:#f57f29;stroke-width:1;stroke-linecap:square;stroke-dasharray:none;stroke-opacity:1"
         d="m 458.67641,144.39921 c -0.94152,1.52256 -1.64893,3.22027 -2.83618,4.59995 -0.67688,0.73473 0.76019,0.16826 1.09182,0.20913 1.59096,-0.16793 3.14005,0.39061 4.72568,0.40426 -1.01246,-1.71517 -1.77873,-3.64195 -2.97273,-5.21525 z"
         id="path50"
         transform="translate(-167.53157,-332.124)" /><path
         style="fill:#ffee00;fill-opacity:1;stroke:#ffee00;stroke-width:1;stroke-linecap:square;stroke-dasharray:none;stroke-opacity:1"
         d="m 94.324579,171.48037 c -21.789875,0.0669 -43.583689,-0.1417 -65.370658,0.26105 -1.007147,0.14141 -2.275849,-0.10341 -3.145142,0.38449 3.610932,5.17229 7.512678,10.15188 11.042065,15.37038 1.013296,1.51556 2.530566,2.55227 4.183819,3.26819 -2.75869,-0.49848 -5.486131,0.27765 -7.947188,1.49994 -8.162786,3.15262 -16.520654,5.8141 -24.6379042,9.06675 -4.1161686,2.27482 -4.6865175,8.77709 -0.8655366,11.61001 6.6589608,6.35588 13.6836208,12.33461 20.2671378,18.75938 1.140878,0.95859 2.448786,1.69388 3.857902,2.17699 -4.229933,0.5414 -7.299364,3.74459 -10.914531,5.67 -6.194374,3.86895 -12.6465121,7.36993 -18.6152454,11.5745 -1.0661905,1.0936 -1.77084895,2.51693 -2.01543805,4.02348 12.97536545,0 25.95073245,0 38.92609745,0 -0.150739,-5.2674 0.128437,-10.56438 -0.343474,-15.8129 -0.747203,-2.58794 -3.257895,-4.72821 -5.756694,-5.23675 1.729354,-0.25628 3.395745,-0.8331 4.904982,-1.72458 2.667875,4.76303 8.050427,7.74404 13.50761,7.4331 4.204953,-0.0928 7.70769,-2.7516 11.443159,-4.35218 6.015716,-2.98434 11.813104,-6.36914 17.852613,-9.31501 2.525708,-1.28949 5.051419,-2.57899 7.577129,-3.86848 0.03923,11.03576 0.07869,22.07152 0.118392,33.10728 19.359416,-0.0278 38.720306,0.0681 58.078756,-0.0864 -5.60284,-12.29677 -6.58139,-26.06448 -6.64441,-39.40237 0.034,-12.53323 0.95156,-25.47927 6.21676,-37.03406 1.23838,-2.67505 2.88662,-5.13978 4.80504,-7.37323 -18.84174,1.5e-4 -37.68349,3e-4 -56.525241,4.5e-4 z m -23.430564,9.53312 c 7.633571,0.006 14.526043,6.9557 14.264444,14.62625 0.345108,7.71385 -6.515845,14.90382 -14.272096,14.72441 -7.040533,0.48845 -13.711258,-5.03682 -14.848647,-11.94599 -1.60112,-7.18906 3.258386,-14.90169 10.317283,-16.81327 1.46923,-0.43518 3.007649,-0.63079 4.539016,-0.5914 z m -24.858483,10.96823 c -0.327177,0.48943 -0.304854,1.75355 -0.87872,1.86548 -1.133507,-1.16573 -2.351549,-2.27668 -3.852052,-2.96883 1.802058,0.32927 3.632206,0.11046 5.305179,-0.63653 -0.19147,0.57996 -0.38294,1.15992 -0.574407,1.73988 z"
         id="path51"
         transform="translate(-167.53157,-332.124)" /><path
         style="fill:#ffee00;fill-opacity:1;stroke:#ffee00;stroke-width:1;stroke-linecap:square;stroke-dasharray:none;stroke-opacity:1"
         d="m 69.444938,232.9151 c -5.309053,2.26052 -10.222552,5.47836 -15.752125,7.19586 -5.883813,1.14888 -12.380585,-1.31524 -15.710627,-6.3825 -0.454462,-0.85243 -1.731733,0.14124 -2.279711,0.57494 0.544893,0.87646 1.745044,1.40154 2.314291,2.35931 2.061031,2.33406 1.258351,5.69525 1.592436,8.53474 0.11697,3.39159 0.149121,6.78518 0.149247,10.17856 9.430178,0 18.860355,0 28.290532,0 0.164468,-7.5044 0.760944,-14.99134 1.409012,-22.46181 z"
         id="path52"
         transform="translate(-167.53157,-332.124)" /><path
         style="fill:#ffee00;fill-opacity:1;stroke:#ffee00;stroke-width:1;stroke-linecap:square;stroke-dasharray:none;stroke-opacity:1"
         d="m 25.846757,230.53116 c -0.133301,0.34995 -0.100869,0.75753 -0.163941,1.12982 -0.135335,1.44121 -0.315335,2.88115 -0.39645,4.32576 0.07594,0.0905 0.241748,-0.15244 0.340738,-0.16454 1.343773,-0.86074 2.765228,-1.62489 4.293353,-2.09739 -0.189006,-0.18098 -0.503521,-0.27553 -0.732599,-0.43323 -1.265521,-0.72011 -2.265755,-1.79275 -3.334496,-2.7601 l -0.0029,-10e-4 z"
         id="path53"
         transform="translate(-167.53157,-332.124)" /><path
         style="fill:#ffee00;fill-opacity:1;stroke:#ffee00;stroke-width:1;stroke-linecap:square;stroke-dasharray:none;stroke-opacity:1"
         d="m 35.23741,186.13181 c -0.44409,1.1371 -0.747076,2.32761 -1.115438,3.49188 -0.170922,0.59693 -0.379909,1.21104 -0.520137,1.80008 0.997434,-0.40244 2.007079,-0.79269 3.063017,-1.0183 0.677517,-0.15661 1.367457,-0.25624 2.061118,-0.30365 -0.998422,-0.70681 -1.864344,-1.5947 -2.523826,-2.62639 -0.320994,-0.44646 -0.612802,-0.92547 -0.964734,-1.34362 z"
         id="path54"
         transform="translate(-167.53157,-332.124)" /><path
         style="fill:#028121;fill-opacity:1;stroke:#ffee00;stroke-width:1;stroke-linecap:square;stroke-dasharray:none;stroke-opacity:1"
         d="m 45.735553,191.13344 c -0.69909,0.1941 -1.414916,0.32276 -2.138108,0.38568 -0.0814,0.002 -0.253068,0.0303 -0.09611,0.11184 0.579243,0.43332 1.084549,0.95735 1.629596,1.42755 0.162745,-0.44383 0.237022,-0.92098 0.444537,-1.35043 0.0559,-0.18587 0.157421,-0.39457 0.167854,-0.57531 z"
         id="path55"
         transform="translate(-167.53157,-332.124)" /><path
         style="fill:#ffee00;fill-opacity:1;stroke:#ffee00;stroke-width:1;stroke-linecap:square;stroke-dasharray:none;stroke-opacity:1"
         d="m 229.27372,171.35185 c -9.75191,0.0257 -19.52158,-5.9e-4 -29.26243,0.0871 1.45541,1.67146 2.88192,3.39573 4.00607,5.32061 5.02274,8.21099 6.94485,17.86643 7.83726,27.33166 0.62343,6.48707 0.54695,13.01683 0.37615,19.52358 -0.54675,9.83301 -1.89499,19.80905 -5.83647,28.91398 -0.44555,1.03182 -0.96498,2.02932 -1.43616,3.04912 18.53256,0.0318 37.06529,-0.0187 55.5979,-0.029 4.26004,-16.65611 4.95741,-34.01888 3.98324,-51.11877 -0.69493,-11.22125 -2.56493,-22.40766 -6.05174,-33.11089 -9.73794,0.0109 -19.47588,0.0218 -29.21382,0.0326 z"
         id="path56"
         transform="translate(-167.53157,-332.124)" /><path
         style="fill:#ffee00;fill-opacity:1;stroke:#ffee00;stroke-width:1;stroke-linecap:square;stroke-dasharray:none;stroke-opacity:1"
         d="m 480.10556,171.05744 c -20.59226,0.11692 -41.18503,0.0686 -61.77753,0.0833 -4.53893,8.98405 -9.19566,17.91125 -13.61457,26.95435 -2.1756,5.46001 -0.51764,12.15232 3.93435,15.98425 1.78825,1.7366 4.19085,2.57844 6.32183,3.79509 9.07009,4.69253 18.22592,9.22378 27.26478,13.97358 4.29882,2.27417 8.65216,4.45237 12.99431,6.64155 2.12034,0.92701 4.4301,1.48559 6.7551,1.26198 4.8878,-0.0312 9.44626,-3.01578 11.96282,-7.11958 0.2596,-0.66875 0.78174,0.12426 1.14341,0.26132 2.60386,1.57872 6.14843,1.29752 8.45272,-0.70473 2.21784,-1.90416 4.27002,-3.996 6.46366,-5.93025 5.21949,-4.80777 10.55365,-9.49472 15.67381,-14.40814 2.14427,-2.77837 1.9023,-7.20657 -0.80241,-9.54031 -1.41145,-1.54627 -3.56472,-1.9165 -5.41952,-2.68816 -6.94337,-2.50462 -13.91964,-4.92524 -20.82952,-7.5184 -1.69928,-0.65396 -3.43707,-1.37642 -5.26669,-1.52583 -2.68178,-0.10591 -5.29769,1.40828 -6.62393,3.72037 -0.47208,-1.34274 -0.97482,-2.74421 -1.31403,-4.09356 2.47733,1.21345 5.63656,1.03986 7.83732,-0.69786 2.03863,-1.79003 3.33193,-4.24007 4.98836,-6.35839 2.98303,-4.06549 6.0144,-8.0957 8.9888,-12.16731 -2.37769,0.0256 -4.75538,0.0512 -7.13307,0.0768 z m -38.2513,10.00556 c 5.56871,0.0518 10.88287,3.61202 13.08558,8.71967 2.29199,5.1447 1.3107,11.5618 -2.49818,15.73007 -2.75712,3.1355 -6.9036,4.95759 -11.07894,4.87505 -5.59255,0.0367 -11.03553,-3.50101 -13.2463,-8.64925 -1.42168,-3.05706 -1.58902,-6.62714 -0.78733,-9.8746 1.51404,-5.78431 6.87476,-10.3237 12.85709,-10.74488 0.55436,-0.0504 1.11161,-0.0677 1.66808,-0.0561 z"
         id="path57"
         transform="translate(-167.53157,-332.124)" /><path
         style="fill:#ffee00;fill-opacity:1;stroke:#ffee00;stroke-width:1;stroke-linecap:square;stroke-dasharray:none;stroke-opacity:1"
         d="m 465.66994,190.54142 c 0.28106,1.09768 0.61487,2.28237 1.11843,3.29227 0.9174,-1.04623 1.91476,-2.05242 3.16803,-2.70503 -1.45322,-0.0466 -2.89465,-0.14609 -4.28646,-0.58724 z"
         id="path58"
         transform="translate(-167.53157,-332.124)" /><path
         style="fill:#ffee00;fill-opacity:1;stroke:#ffee00;stroke-width:1;stroke-linecap:square;stroke-dasharray:none;stroke-opacity:1"
         d="m 476.5657,185.77217 c -1.19852,1.63905 -2.43106,3.35272 -4.15051,4.50006 -0.30286,0.27529 0.72167,0.25794 0.58251,0.22058 1.89189,-0.0271 3.64675,0.81532 5.40377,1.34734 -0.19172,-1.29914 -0.74099,-2.589 -1.0812,-3.8785 -0.27289,-0.70946 -0.35454,-1.56098 -0.75457,-2.18948 z"
         id="path59"
         transform="translate(-167.53157,-332.124)" /><path
         style="fill:#ffee00;fill-opacity:1;stroke:#ffee00;stroke-width:1;stroke-linecap:square;stroke-dasharray:none;stroke-opacity:1"
         d="m 479.97906,234.11861 c -3.70901,-0.0567 -7.05405,3.39392 -6.92081,7.09818 -0.0979,4.83405 -0.0254,9.6701 -0.0479,14.50495 12.98864,0 25.97729,0 38.96593,0 -0.23425,-2.23155 -1.28458,-4.50361 -3.30837,-5.63801 -5.89866,-3.7875 -11.99612,-7.25545 -17.97298,-10.91733 -1.9718,-1.13412 -3.84696,-2.4157 -5.79419,-3.58363 -1.35496,-0.78538 -2.79948,-1.64132 -4.43297,-1.46513 -0.16289,-0.001 -0.32578,8.8e-4 -0.48867,9.7e-4 z"
         id="path60"
         transform="translate(-167.53157,-332.124)" /><path
         style="fill:#ffee00;fill-opacity:1;stroke:#ffee00;stroke-width:1;stroke-linecap:square;stroke-dasharray:none;stroke-opacity:1"
         d="m 486.07563,230.1583 c -1.46718,1.17772 -2.75766,2.62693 -4.5273,3.37195 -0.20712,0.0936 -0.75296,0.37525 -0.21788,0.45759 1.99157,0.28295 3.59839,1.60304 5.3394,2.46509 0.11893,-0.71683 -0.13334,-1.55874 -0.14965,-2.31527 -0.14799,-1.32087 -0.24709,-2.68694 -0.44457,-3.97936 z"
         id="path61"
         transform="translate(-167.53157,-332.124)" /><path
         style="fill:#ffee00;fill-opacity:1;stroke:#ffee00;stroke-width:1;stroke-linecap:square;stroke-dasharray:none;stroke-opacity:1"
         d="m 442.27831,232.03593 c 0.94935,7.52106 1.42915,15.09657 1.47844,22.67694 -0.23802,0.97588 0.30067,1.16097 1.17055,1.00887 9.31869,0 18.63737,0 27.95606,0 0.0703,-5.19811 -0.0461,-10.40158 0.16295,-15.59612 0.23631,-2.6041 2.313,-4.75959 4.65268,-5.72881 0.16055,-0.056 0.94492,-0.25251 0.44093,-0.39727 -1.39542,-0.14839 -2.72042,-0.68876 -3.87073,-1.47181 -1.00834,1.32257 -2.01307,2.67769 -3.30439,3.75413 -2.51609,2.26338 -5.84543,3.61353 -9.2457,3.56418 -2.3787,0.15356 -4.77729,-0.34009 -6.86837,-1.49518 -4.23167,-2.01445 -8.41934,-4.18573 -12.57242,-6.31493 z"
         id="path62"
         transform="translate(-167.53157,-332.124)" /><path
         style="fill:#028121;fill-opacity:1;stroke:#028121;stroke-width:1;stroke-linecap:square;stroke-dasharray:none;stroke-opacity:1"
         d="m 32.986413,278.08271 c -2.282193,-0.005 -4.300611,1.2934 -5.83658,2.88429 -6.795,6.36213 -13.799622,12.49981 -20.559888,18.898 -1.2745768,1.52799 -1.9559073,3.54385 -1.659985,5.53381 0.2108805,2.3818 1.8727804,4.47062 3.927459,5.58096 8.149202,3.09391 16.423818,5.85639 24.576682,8.9362 2.152924,0.87513 4.455253,1.84345 6.829207,1.38538 3.236007,-0.64242 5.960833,-3.65246 5.887014,-7.01175 -0.436051,-3.98702 -1.399713,-7.89599 -2.125206,-11.83685 -1.288438,-6.37204 -2.495587,-12.7643 -3.85139,-19.12045 -0.89261,-3.09313 -3.971227,-5.33686 -7.187313,-5.24959 z"
         id="path63"
         transform="translate(-167.53157,-332.124)" /><path
         style="fill:#028121;fill-opacity:1;stroke:#028121;stroke-width:1;stroke-linecap:square;stroke-dasharray:none;stroke-opacity:1"
         d="m 43.023936,320.9626 c -1.049661,0.31571 -2.06111,0.83376 -3.172528,0.97168 -1.676024,0.51125 -2.577196,2.20077 -3.643718,3.46416 -3.523499,5.08428 -7.347846,9.9868 -10.953737,15.00785 3.761016,0.21156 7.544946,0.0858 11.314862,0.13194 6.535325,0.003 13.070651,9.7e-4 19.605975,0.002 -2.209109,-5.43436 -4.458157,-10.85629 -6.857567,-16.20904 -1.328693,-2.14784 -3.815318,-3.31417 -6.293287,-3.36812 z"
         id="path74"
         transform="translate(-167.53157,-332.124)" /><path
         style="fill:#028121;fill-opacity:1;stroke:#028121;stroke-width:1;stroke-linecap:square;stroke-dasharray:none;stroke-opacity:1"
         d="m 33.766097,320.74404 c 0.270348,1.54117 0.883201,3.07744 1.330969,4.60065 0.135368,0.1798 0.199397,1.12455 0.515602,0.60797 1.151061,-1.35728 2.066438,-2.98466 3.623592,-3.93533 -1.893178,-0.0402 -3.673015,-0.70952 -5.449456,-1.27419 z"
         id="path75"
         transform="translate(-167.53157,-332.124)" /><path
         style="fill:#028121;fill-opacity:1;stroke:#028121;stroke-width:1;stroke-linecap:square;stroke-dasharray:none;stroke-opacity:1"
         d="m 39.175487,255.88222 c -0.26574,1.45693 -0.106725,3.00953 -0.171877,4.50274 -0.04804,3.87712 0.0127,7.77042 -0.09036,11.63743 -0.56324,2.10361 -1.857909,4.05032 -3.832681,5.05871 -0.234006,0.1149 -1.046731,0.39982 -0.428105,0.60547 2.572821,0.52657 4.907823,2.41525 5.8483,4.89103 1.309227,5.37062 2.254883,10.82423 3.372727,16.23729 0.921752,4.89213 2.042763,9.75322 2.731199,14.68545 0.297992,2.09891 -0.379883,4.28971 -1.901367,5.78464 -0.429312,0.50461 -1.05786,0.98808 -1.379133,1.50926 1.974172,0.24343 3.948878,0.98081 5.298463,2.50043 1.22557,1.24832 1.614071,3.04518 2.381125,4.57431 1.819748,4.20309 3.573383,8.43424 5.313484,12.67078 10.426996,-0.0299 20.855278,0.0683 31.281419,-0.0729 0.63783,0.0994 0.799497,-0.12976 0.343249,-0.64126 -12.218927,-24.4935 -18.99925,-51.68043 -19.660361,-79.04709 -0.05401,-1.60855 -0.09593,-3.21747 -0.141435,-4.82627 -9.654455,-0.0226 -19.311814,0.0551 -28.964652,-0.07 z"
         id="path76"
         transform="translate(-167.53157,-332.124)" /><path
         style="fill:#028121;fill-opacity:1;stroke:#028121;stroke-width:1;stroke-linecap:square;stroke-dasharray:none;stroke-opacity:1"
         d="m 0.0976855,256.5955 c 0.18336179,2.41624 1.6976022,4.626 3.8368808,5.74471 7.0583147,4.40164 14.2843487,8.53707 21.3364927,12.94384 1.471575,0.96638 3.00538,1.93098 4.696107,2.45901 1.023381,0.25443 2.034646,-0.27998 3.07632,-0.19203 0.927151,0.10414 1.702638,-0.36978 2.433907,-0.86743 1.709573,-1.0749 2.901021,-2.94409 3.329917,-4.88561 0.04483,-5.35885 0.07728,-10.7179 0.166054,-16.07625 -12.983169,0 -25.966337,0 -38.94950533,0 0.02460894,0.29125 0.04921789,0.58251 0.07382683,0.87376 z"
         id="path77"
         transform="translate(-167.53157,-332.124)" /><path
         style="fill:#028121;fill-opacity:1;stroke:#028121;stroke-width:1;stroke-linecap:square;stroke-dasharray:none;stroke-opacity:1"
         d="m 25.360867,275.54672 c -0.09936,1.36277 0.225678,2.76599 0.292636,4.14213 0.110824,0.4585 0.0028,1.13588 0.229554,1.49842 1.198899,-0.66759 1.961488,-1.91521 3.228798,-2.50359 0.333876,-0.25968 0.964625,-0.39673 1.138464,-0.75447 -1.77106,-0.48338 -3.325051,-1.47157 -4.889452,-2.38249 z"
         id="path78"
         transform="translate(-167.53157,-332.124)" /><path
         style="fill:#028121;fill-opacity:1;stroke:#028121;stroke-width:1;stroke-linecap:square;stroke-dasharray:none;stroke-opacity:1"
         d="m 140.20998,255.87569 c -17.29209,0.11278 -34.58473,0.0654 -51.877077,0.0765 0,28.19585 0,56.39169 0,84.58754 17.175997,0 34.351987,0 51.527977,0 -0.0678,-10.36853 0.0197,-20.73909 -0.18315,-31.10612 -0.27373,-6.43111 -1.1808,-12.82354 -2.32052,-19.15352 0.0844,-0.41554 -0.60845,-1.44079 -0.0251,-1.47091 0.90731,0.0371 1.92331,-0.12473 2.76027,0.0798 4.81016,5.69409 10.64313,10.46085 16.86123,14.53972 5.08828,3.47625 10.92498,5.73111 16.93623,6.99937 7.4485,1.62063 15.11594,1.91863 22.71283,1.65977 9.61083,-0.52578 19.17877,-2.89457 27.68309,-7.46371 7.72186,-4.02993 14.44477,-9.79233 20.0942,-16.3857 7.76367,-9.24339 12.92328,-20.45824 15.97646,-32.07982 -0.67553,-0.1334 -1.57565,-0.0204 -2.33275,-0.061 -17.80202,0.002 -35.6039,0.0788 -53.40583,0.12317 -2.41503,4.37658 -5.68758,8.36357 -9.9273,11.07886 -5.38359,3.49509 -11.96048,4.69087 -18.29856,4.41624 -5.79461,-0.0331 -11.67282,-0.98842 -16.95482,-3.44692 -5.46421,-2.54453 -10.02476,-7.00104 -12.58252,-12.46953 -2.21488,0.0254 -4.42976,0.0509 -6.64464,0.0763 z"
         id="path79"
         transform="translate(-167.53157,-332.124)" /><path
         style="fill:#028121;fill-opacity:1;stroke:#028121;stroke-width:1;stroke-linecap:square;stroke-dasharray:none;stroke-opacity:1"
         d="m 443.7006,260.38903 c -0.48738,25.04208 -6.21854,49.94678 -16.49245,72.77748 -0.85226,1.95324 -1.85579,3.86447 -2.68001,5.81343 0.55048,0.0633 0.21213,0.78241 0.24231,1.15499 -0.18103,0.81348 1.17327,0.2278 1.69091,0.40458 9.81184,-0.001 19.62368,-0.003 29.43553,-0.004 2.28459,-5.40821 4.38402,-10.90026 6.86319,-16.22299 1.57018,-2.3718 4.57764,-3.70899 7.38651,-3.11761 2.22648,0.28258 3.96132,1.89172 5.18931,3.66451 0.40178,0.45901 0.77072,1.11271 1.25838,1.41221 0.67533,-2.04741 1.34532,-4.13791 1.88686,-6.20303 -1.88555,0.30563 -3.63032,1.51474 -5.61579,1.27261 -3.84465,0.005 -7.32205,-3.68238 -6.93184,-7.54451 0.37001,-3.42413 1.22106,-6.77854 1.8386,-10.16398 1.37356,-6.67327 2.58213,-13.38291 4.11616,-20.02174 0.66467,-3.59784 4.5737,-5.9881 8.09935,-5.37586 2.27277,0.26498 3.94325,1.9415 5.56433,3.39004 0.33789,0.47008 0.66843,0.44051 0.61366,-0.18273 0.16763,-2.00217 0.46155,-4.04436 0.51729,-6.02668 -1.95166,0.86688 -3.69038,2.47031 -5.94756,2.46487 -3.15016,0.22368 -6.23971,-1.83707 -7.29378,-4.80662 -0.61727,-2.05735 -0.334,-4.25378 -0.42641,-6.37274 -0.005,-3.46701 -0.003,-6.93402 -0.005,-10.40103 -9.74537,-0.0198 -19.49074,-0.0396 -29.2361,-0.0594 -0.0245,1.3829 -0.0491,2.7658 -0.0736,4.1487 z"
         id="path80"
         transform="translate(-167.53157,-332.124)" /><path
         style="fill:#028121;fill-opacity:1;stroke:#028121;stroke-width:1;stroke-linecap:square;stroke-dasharray:none;stroke-opacity:1"
         d="m 478.65806,278.31117 c -3.01434,0.0588 -6.01561,2.24179 -6.60255,5.27839 -1.59399,6.73113 -2.8195,13.54383 -4.20772,20.31941 -0.6325,3.47828 -1.48904,6.93112 -1.80332,10.45761 0.004,3.6564 3.34614,6.85002 6.97275,6.88626 1.67768,0.0539 3.25101,-0.73579 4.84689,-1.15799 7.83858,-2.75831 15.65523,-5.58141 23.47055,-8.40509 1.77931,-0.5532 3.49803,-1.50371 4.52859,-3.10981 2.08041,-2.88143 1.53981,-7.33654 -1.29738,-9.53109 -6.1952,-5.73015 -12.48348,-11.377 -18.7187,-17.05197 -1.88091,-1.50948 -3.70388,-3.5606 -6.29565,-3.66433 -0.2972,-0.0226 -0.59555,-0.0258 -0.89346,-0.0214 z"
         id="path81"
         transform="translate(-167.53157,-332.124)" /><path
         style="fill:#028121;fill-opacity:1;stroke:#028121;stroke-width:1;stroke-linecap:square;stroke-dasharray:none;stroke-opacity:1"
         d="m 473.15593,263.99034 c 0.0788,2.84065 -0.11578,5.70606 0.26425,8.52835 0.85517,3.13845 4.08088,5.55264 7.36886,5.17224 2.13441,0.0219 3.86941,-1.41653 5.67015,-2.36322 7.47803,-4.44299 14.97418,-8.85972 22.37941,-13.4223 1.81606,-1.28182 2.95284,-3.40411 3.13764,-5.60746 -12.95466,0 -25.90931,0 -38.86397,0 0.0145,2.56413 0.0291,5.12826 0.0437,7.69239 z"
         id="path82"
         transform="translate(-167.53157,-332.124)" /><path
         style="fill:#028121;fill-opacity:1;stroke:#028121;stroke-width:1;stroke-linecap:square;stroke-dasharray:none;stroke-opacity:1"
         d="m 468.49877,321.20276 c -2.78321,0.10329 -5.35658,2.02609 -6.30159,4.63821 -2.11275,4.81433 -4.12835,9.71643 -6.08106,14.57027 4.20724,0.20679 8.43126,0.0849 12.64509,0.12751 5.95613,-0.0319 11.91625,0.075 17.8697,-0.10388 0.3063,-0.19467 -0.61256,-0.84498 -0.70178,-1.17913 -3.19105,-4.33034 -6.42811,-8.65719 -9.56938,-13.00597 -1.60215,-1.75863 -2.95725,-4.09211 -5.41975,-4.74675 -0.79173,-0.22426 -1.61805,-0.33639 -2.44123,-0.30026 z"
         id="path83"
         transform="translate(-167.53157,-332.124)" /><path
         style="fill:#028121;fill-opacity:1;stroke:#028121;stroke-width:1;stroke-linecap:square;stroke-dasharray:none;stroke-opacity:1"
         d="m 366.76697,339.12377 c -28.92894,0.009 -57.85788,0.0225 -86.78682,0.0335 0.0121,0.71764 -0.2544,1.71383 0.8067,1.38244 47.95983,-5.5e-4 95.91966,-0.001 143.87949,-0.002 -0.0113,-0.45293 0.11114,-0.94227 -0.0484,-1.37525 -19.28339,-0.0634 -38.56743,-0.0319 -57.85098,-0.0387 z"
         id="path84"
         transform="translate(-167.53157,-332.124)" /><path
         style="fill:#004cff;fill-opacity:1;stroke:#004cff;stroke-width:1;stroke-linecap:square;stroke-dasharray:none;stroke-opacity:1"
         d="m 88.217661,365.2004 c 0,8.02822 0,16.05644 0,24.08465 3.926852,0.0198 7.853704,0.0396 11.780556,0.0596 -3.532488,2.34247 -5.978621,6.21252 -6.537856,10.41954 -0.0085,1.03994 -0.819766,-0.42556 -1.227347,-0.62701 -2.475612,-2.65445 -6.97777,-2.93409 -9.755609,-0.59037 -1.819407,1.3685 -2.565239,3.60896 -2.982779,5.75546 -1.614111,6.72067 -3.305429,13.42259 -4.962164,20.13286 18.92683,0.0336 37.853808,0.0258 56.780488,0.11591 -2.9479,-2.80042 -4.75701,-6.83894 -4.58627,-10.93042 -0.12924,-6.28252 4.43621,-12.22617 10.4643,-13.8981 5.25137,-1.61318 11.31343,0.059 14.97625,4.15949 2.69515,2.86509 4.07657,6.85879 3.7932,10.77684 -0.0439,3.63074 -1.84518,7.00682 -4.24044,9.64573 -0.32982,0.44286 0.91249,0.0788 1.15847,0.2077 7.43083,0.0327 14.86482,0.10559 22.29393,-0.0571 0.0782,-0.51478 -0.16998,-1.2376 -0.21251,-1.82291 -1.71102,-10.83337 -3.42108,-21.6679 -5.25563,-32.48091 -1.56091,-5.73077 -6.91734,-10.17957 -12.8551,-10.58582 -2.52537,-0.21847 -5.01044,0.47616 -7.50403,0.76518 -3.12693,0.46526 -6.29015,1.0316 -9.39308,1.44467 -0.17152,-9.07574 -0.0778,-18.15615 -0.10602,-27.23377 0,-4.47523 0,-8.95045 0,-13.42568 -17.20945,0 -34.41891,0 -51.628359,0 0,8.02814 0,16.05629 0,24.08443 z"
         id="path85"
         transform="translate(-167.53157,-332.124)" /><path
         style="fill:#004cff;fill-opacity:1;stroke:#004cff;stroke-width:1;stroke-linecap:square;stroke-dasharray:none;stroke-opacity:1"
         d="m 72.054987,341.09751 c -5.203356,0.0276 -10.437137,0.004 -15.621577,0.0846 1.624793,4.24948 3.539407,8.39237 5.065466,12.67615 0.321024,2.07939 -0.04201,4.32144 -1.414865,5.97592 -0.558903,0.87415 -1.551136,1.33678 -2.18937,2.10745 0.86739,-0.21294 1.769734,-0.73147 2.730017,-0.69551 1.760694,-0.17555 3.575094,0.21496 4.993214,1.3111 1.533786,1.1263 2.35046,2.9266 3.486298,4.40851 5.076723,7.5203 10.158862,15.03974 15.064494,22.67289 1.169902,2.30109 0.807821,5.09222 -0.466594,7.26991 -0.156315,0.44882 0.83705,-0.21218 1.099396,-0.18516 2.754323,-0.75408 5.913331,-0.0434 7.90185,2.0601 0.409382,0.53507 0.39955,-0.40474 0.486177,-0.64621 0.766552,-3.19008 2.664247,-5.98575 5.028561,-8.21774 -0.408845,-0.13155 -1.391329,-0.0186 -2.020343,-0.0563 -2.852086,0 -5.704173,0 -8.55626,0 0,-16.26831 0,-32.53663 0,-48.80494 -5.195487,0.0131 -10.390976,0.0261 -15.586464,0.0392 z"
         id="path88"
         transform="translate(-167.53157,-332.124)" /><path
         style="fill:#004cff;fill-opacity:1;stroke:#004cff;stroke-width:1;stroke-linecap:square;stroke-dasharray:none;stroke-opacity:1"
         d="m 61.320836,361.3398 c -2.346469,0.0783 -4.906169,0.97897 -6.079202,3.16003 -1.502182,2.58396 -2.498786,5.41722 -3.845877,8.08145 -3.008725,6.47104 -6.148945,12.8836 -9.055169,19.4007 -0.738522,2.34693 -0.245091,5.05658 1.4439,6.88098 1.43157,1.67349 3.628116,2.72068 5.852802,2.48783 9.229809,-0.3265 18.450046,-0.89526 27.680179,-1.22013 1.461364,-0.0722 3.127931,-0.18456 4.125455,-1.41243 0.62801,-0.70137 1.559278,-1.09435 2.172039,-1.77522 0.664196,-1.40367 1.193882,-2.90632 1.08036,-4.48678 0.10815,-2.22201 -1.534861,-3.95251 -2.583376,-5.75119 -5.016069,-7.62015 -10.042006,-15.23734 -15.260849,-22.72025 -1.299746,-1.70023 -3.384667,-2.71799 -5.530262,-2.64499 z"
         id="path89"
         transform="translate(-167.53157,-332.124)" /><path
         style="fill:#004cff;fill-opacity:1;stroke:#004cff;stroke-width:1;stroke-linecap:square;stroke-dasharray:none;stroke-opacity:1"
         d="m 22.59011,343.9394 c -1.358601,2.00306 -3.324113,3.85095 -3.518254,6.40132 -0.502082,3.44954 1.990654,6.93194 5.301802,7.82947 9.527279,1.51952 19.075539,2.91328 28.610398,4.38106 1.838986,0.21369 3.897986,0.11226 5.33599,-1.20785 1.777307,-1.35018 3.202182,-3.41293 3.095549,-5.72811 0.0188,-0.9751 0.09085,-1.96332 -0.424973,-2.837 -1.538922,-3.90182 -3.169661,-7.76657 -4.723773,-11.66232 -10.067879,-0.0374 -20.137687,0.0487 -30.204209,-0.11956 -0.756434,-0.0991 -1.489676,-0.14961 -1.799688,0.68723 -0.557614,0.75192 -1.115228,1.50384 -1.672842,2.25576 z"
         id="path90"
         transform="translate(-167.53157,-332.124)" /><path
         style="fill:#004cff;fill-opacity:1;stroke:#004cff;stroke-width:1;stroke-linecap:square;stroke-dasharray:none;stroke-opacity:1"
         d="m 50.501509,362.70529 c 0.288753,0.74187 0.719267,1.43351 1.080429,2.1465 0.498028,0.89763 0.95376,1.83972 1.499106,2.69864 0.462882,-0.85257 0.833923,-1.75619 1.31185,-2.60302 0.345536,-0.64811 0.732879,-1.29155 1.191608,-1.85568 -1.228069,0.13439 -2.466161,0.0284 -3.679983,-0.17924 -0.467557,-0.0691 -0.934681,-0.14668 -1.40301,-0.2072 z"
         id="path91"
         transform="translate(-167.53157,-332.124)" /><path
         style="fill:#004cff;fill-opacity:1;stroke:#004cff;stroke-width:1;stroke-linecap:square;stroke-dasharray:none;stroke-opacity:1"
         d="m 80.344456,400.16016 c -0.93827,0.33762 -1.936884,0.43518 -2.926862,0.48201 -0.724681,0.0511 -1.468131,0.0361 -2.182233,0.11085 1.072056,1.3666 2.170053,2.71518 3.304495,4.03072 0.07087,0.046 0.221111,0.32775 0.257197,0.1099 0.399823,-1.49797 0.652205,-3.06486 1.419282,-4.43562 0.03729,-0.0921 0.124304,-0.21354 0.128121,-0.29786 z"
         id="path92"
         transform="translate(-167.53157,-332.124)" /><path
         style="fill:#004cff;fill-opacity:1;stroke:#004cff;stroke-width:1;stroke-linecap:square;stroke-dasharray:none;stroke-opacity:1"
         d="m 450.24937,361.19855 c -1.90328,-0.0473 -3.73728,0.94131 -5.0031,2.31574 -4.28144,6.13447 -8.39885,12.38218 -12.55704,18.60061 -1.67337,2.55988 -3.42331,5.07512 -5.00506,7.69173 -0.69018,1.39153 -0.68491,3.01266 -0.48167,4.51708 0.64479,3.0675 3.42657,5.54149 6.56745,5.73968 3.00192,0.20944 6.01419,0.23668 9.01856,0.41523 6.5943,0.28707 13.18331,0.70935 19.78103,0.90832 3.36045,0.19407 6.62728,-2.34507 7.28398,-5.64562 0.38334,-1.66445 0.15346,-3.45502 -0.68491,-4.94857 -3.48481,-7.59553 -7.14545,-15.11164 -10.62733,-22.70684 -0.6713,-1.4019 -1.21004,-2.8981 -2.14717,-4.15106 -1.37996,-1.69603 -3.5321,-2.90111 -5.76372,-2.73773 -0.12701,4.8e-4 -0.25401,9.6e-4 -0.38102,0.001 z"
         id="path93"
         transform="translate(-167.53157,-332.124)" /><path
         style="fill:#004cff;fill-opacity:1;stroke:#004cff;stroke-width:1;stroke-linecap:square;stroke-dasharray:none;stroke-opacity:1"
         d="m 436.77911,341.11777 c -4.01764,0.0288 -8.04169,-0.0303 -12.05515,0.10579 -0.33954,6.86868 -0.6918,13.73673 -1.03718,20.60511 -4.18084,0.0546 -8.36293,0.021 -12.54426,0.0308 -5.51303,8.03759 -11.64411,15.64537 -18.28778,22.77487 -0.34095,0.24911 -0.0869,0.51323 0.26015,0.46219 4.91127,0.86778 9.87082,1.47669 14.75804,2.46852 5.55815,1.484 9.94887,6.52813 10.61243,12.24974 -0.0289,0.81323 0.50293,0.0374 0.78036,-0.17556 1.56304,-1.68669 3.80511,-2.83425 6.14819,-2.59776 0.9332,-0.0212 1.85164,0.33551 2.69145,0.60916 -0.85534,-1.26818 -1.52181,-2.72748 -1.52537,-4.29353 -0.14347,-1.6953 0.21888,-3.43174 1.22694,-4.82463 5.24541,-8.00731 10.53204,-15.98986 15.963,-23.87276 0.84931,-1.33706 1.88854,-2.61369 3.38163,-3.25536 1.6902,-0.88373 3.71179,-0.91644 5.52666,-0.61109 -1.44408,-1.55864 -2.47139,-3.62765 -2.30754,-5.80509 0.1091,-2.03909 1.24787,-3.82435 1.89993,-5.71658 1.08969,-2.70263 2.28488,-5.43715 3.31791,-8.11604 -6.26947,-0.0523 -12.5397,-0.0351 -18.80941,-0.0378 z"
         id="path94"
         transform="translate(-167.53157,-332.124)" /><path
         style="fill:#004cff;fill-opacity:1;stroke:#004cff;stroke-width:1;stroke-linecap:square;stroke-dasharray:none;stroke-opacity:1"
         d="m 279.98015,351.43012 c 0,3.43805 0,6.8761 0,10.31415 47.8566,0 95.71319,0 143.56978,0 0.40134,-6.84127 0.71836,-13.68759 1.05879,-20.53219 -22.41199,-0.11664 -44.82528,-0.0756 -67.23779,-0.0954 -25.79693,-0.002 -51.59385,-2.6e-4 -77.39078,-7.1e-4 0,3.43805 0,6.8761 0,10.31415 z"
         id="path95"
         transform="translate(-167.53157,-332.124)" /><path
         style="fill:#004cff;fill-opacity:1;stroke:#004cff;stroke-width:1;stroke-linecap:square;stroke-dasharray:none;stroke-opacity:1"
         d="m 486.92104,340.95099 c -10.21672,0.18562 -20.44093,0.10253 -30.66063,0.15999 -0.72048,-0.11174 -0.7489,0.92182 -1.05137,1.35121 -1.4731,3.70715 -3.14277,7.34145 -4.45077,11.11116 -0.82853,2.63444 0.33369,5.5242 2.26072,7.3604 1.17719,0.30863 2.06881,1.23399 3.19954,1.62126 2.79414,0.32509 5.54564,-0.5452 8.30382,-0.86362 7.59311,-1.2087 15.2193,-2.21102 22.80058,-3.49011 4.21476,-0.76542 6.90859,-5.87384 5.10743,-9.77443 -1.28524,-2.39918 -3.07217,-4.48707 -4.67407,-6.67686 -0.25697,-0.25438 -0.46014,-0.71882 -0.83525,-0.799 z"
         id="path96"
         transform="translate(-167.53157,-332.124)" /><path
         style="fill:#004cff;fill-opacity:1;stroke:#004cff;stroke-width:1;stroke-linecap:square;stroke-dasharray:none;stroke-opacity:1"
         d="m 461.47441,362.3243 c -1.72856,0.33426 -3.58704,0.36444 -5.27681,0.43959 1.14254,1.38453 1.9021,3.02477 2.69715,4.61035 0.44777,-0.33942 0.62213,-1.09291 0.95345,-1.58255 0.53889,-1.15253 1.35266,-2.26589 1.68136,-3.47121 z"
         id="path97"
         transform="translate(-167.53157,-332.124)" /><path
         style="fill:#004cff;fill-opacity:1;stroke:#004cff;stroke-width:1;stroke-linecap:square;stroke-dasharray:none;stroke-opacity:1"
         d="m 356.01008,379.51538 c -6.88522,0.0199 -13.24377,5.65226 -14.06854,12.49163 -1.78173,10.82421 -3.4811,21.68144 -5.17978,32.50672 1.95857,0.2553 3.97331,0.0899 5.95297,0.1488 5.98507,0.007 11.97015,0.002 17.95522,0.004 -3.22716,-3.16994 -5.18731,-7.77049 -4.59962,-12.32312 0.46739,-6.72683 6.28895,-12.55953 12.9926,-13.12663 4.56545,-0.514 9.32853,1.2183 12.40773,4.64814 3.06774,3.31546 4.43352,8.0747 3.61594,12.51612 -0.50244,3.10459 -2.14683,5.92805 -4.35353,8.13513 -0.41547,0.46939 0.93791,0.089 1.19404,0.22043 17.81363,0.10055 35.62784,0.0906 53.44163,0.12837 0.71619,-0.015 1.43809,0.007 2.15044,-0.0544 -1.82465,-7.50629 -3.65412,-15.01326 -5.53453,-22.50503 -0.37572,-1.2032 -0.89288,-2.50386 -2.10863,-3.07365 -0.90961,-0.673 -1.67528,-1.62114 -2.85916,-1.80635 -1.99971,-0.5027 -4.24241,-0.34924 -5.94444,0.91615 -0.9109,0.51655 -1.56717,1.47429 -2.5103,1.88319 -0.41044,-0.7649 -0.31593,-1.74967 -0.64441,-2.57223 -1.53795,-5.22054 -6.17016,-9.49704 -11.61056,-10.2606 -4.48971,-0.8156 -9.01164,-1.46759 -13.50699,-2.23324 -6.54873,-1.1816 -13.14658,-2.10827 -19.7153,-3.18486 -5.46761,-0.82953 -10.91675,-1.81711 -16.41113,-2.44881 -0.22109,-0.009 -0.4424,-0.012 -0.66365,-0.01 z"
         id="path98"
         transform="translate(-167.53157,-332.124)" /><path
         style="fill:#004cff;fill-opacity:1;stroke:#004cff;stroke-width:1;stroke-linecap:square;stroke-dasharray:none;stroke-opacity:1"
         d="m 431.21712,400.04621 c 0.69022,1.53384 1.12687,3.20411 1.55003,4.84525 0.045,0.83511 0.48433,0.0177 0.73083,-0.22741 0.9595,-1.23215 2.12246,-2.34351 2.90097,-3.69703 -0.0742,-0.45036 -0.81055,-0.17289 -1.13036,-0.26042 -1.37717,-0.0214 -2.75104,-0.20494 -4.05147,-0.66039 z"
         id="path99"
         transform="translate(-167.53157,-332.124)" /><path
         style="fill:#770088;fill-opacity:1;stroke:#770088;stroke-width:1;stroke-linecap:square;stroke-dasharray:none;stroke-opacity:1"
         d="m 175.50798,425.7312 c 0.69312,4.99861 1.69832,9.95527 2.24734,14.97266 0.50295,5.62072 -2.67034,11.33214 -7.66348,13.93977 -0.34948,0.15909 -0.7232,0.48083 -0.0853,0.56759 5.78834,2.54405 11.69997,4.80986 17.46414,7.40346 2.13792,1.37582 3.61331,3.82573 3.45411,6.4128 0.0903,0.52244 -0.21634,1.13546 -0.0507,1.60821 0.63407,-0.68648 0.91538,-1.6823 1.61249,-2.3521 1.74211,-2.04389 4.66261,-2.8095 7.23385,-2.16253 8.92037,1.66792 17.80874,3.50533 26.71114,5.26652 1.8607,0.36732 3.86452,0.77149 5.18773,2.26083 1.57622,1.34835 2.15691,3.44538 2.32645,5.43595 0.16606,0.42073 0.32663,-0.34661 0.3536,-0.49203 0.7233,-3.15539 3.82686,-5.70054 7.11214,-5.47196 10.26292,-0.0849 20.52662,0.008 30.78984,0.005 2.342,0.66091 4.42783,2.34033 5.2435,4.67675 0.30509,0.51949 0.16948,1.27323 0.54785,1.71625 0.29023,-0.42691 0.0624,-1.12775 0.21113,-1.64693 0.39818,-3.02762 2.869,-5.7277 5.94238,-6.1274 9.67715,-2.05091 19.38913,-3.93776 29.10106,-5.81589 2.27208,-0.31571 4.60644,0.56851 6.13984,2.26651 0.79632,0.70066 1.16129,1.74989 1.76255,2.56487 -0.0115,-1.4733 -0.27425,-3.05541 0.37207,-4.46179 0.34429,-0.88968 0.82952,-1.72094 1.44367,-2.45137 -0.0276,-10.47621 0.0605,-20.95347 -0.0578,-31.429 -0.0836,-0.22337 0.14785,-1.1578 -0.35797,-0.80857 -28.04972,10.64849 -58.67054,14.42072 -88.46561,10.89095 -20.02171,-2.33302 -39.63615,-7.96479 -57.89781,-16.48828 -0.22553,-0.093 -0.44632,-0.20571 -0.67818,-0.28045 z"
         id="path100"
         transform="translate(-167.53157,-332.124)" /><path
         style="fill:#770088;fill-opacity:1;stroke:#770088;stroke-width:1;stroke-linecap:square;stroke-dasharray:none;stroke-opacity:1"
         d="m 336.56077,425.46853 c -0.83936,4.91774 -1.70629,9.83681 -2.3179,14.789 -0.61547,4.82194 1.51702,9.80358 5.2811,12.83686 0.8803,0.76651 1.93207,1.30335 2.89432,1.93863 -5.9174,2.51488 -11.90818,4.86431 -17.78481,7.47056 -0.59261,0.2748 -1.17039,0.75199 -1.14299,1.45934 -0.62185,1.05877 -1.34752,2.11254 -1.73689,3.28078 0.0198,1.62661 -0.13707,3.3043 -0.01,4.89978 1.51817,2.6692 4.41852,3.98924 6.74091,5.82523 6.45619,4.70112 12.77624,9.59232 19.33173,14.15509 2.85305,1.68959 6.72184,0.80495 8.82208,-1.68068 1.36175,-1.44408 1.73305,-3.47155 1.95004,-5.37232 1.32286,-8.61749 2.52973,-17.25516 3.94136,-25.85711 0.54787,-2.57215 -0.3788,-5.39629 -2.38078,-7.11196 -0.96326,-0.3607 1.26602,-1.19669 0.92545,-1.04199 0.23487,2.02563 1.1824,3.95789 2.7733,5.25895 1.97736,1.44013 4.3665,2.16196 6.53592,3.25737 7.25048,3.35639 14.42526,6.87938 21.72647,10.12419 3.44631,1.13344 7.50434,-0.8666 8.76332,-4.2596 0.85239,-1.97346 0.33643,-4.15439 0.35969,-6.22666 -0.29811,-7.38673 -0.7617,-14.77393 -0.9935,-22.1587 -0.0694,-1.70726 -0.0437,-3.47334 -0.55078,-5.11926 -0.86647,-2.43544 -3.0812,-4.33435 -5.62029,-4.78186 0.21718,-0.56084 0.97855,-0.8204 1.41396,-1.23188 0.51566,-0.31172 0.92175,-0.67312 0.0109,-0.5244 -5.02439,-0.10366 -10.0564,0.0176 -15.07606,-0.21972 -0.63249,-0.18079 -1.09201,0.6228 -1.63478,0.84889 -2.58696,1.69796 -5.68852,2.57911 -8.78535,2.4155 -3.09752,-0.10261 -6.15842,-1.26391 -8.57452,-3.20001 -8.00778,-0.0351 -16.01885,0.0632 -24.02443,-0.10965 -0.40304,0.005 -0.84904,-0.28913 -0.83788,0.33563 z"
         id="path101"
         transform="translate(-167.53157,-332.124)" /><path
         style="fill:#770088;fill-opacity:1;stroke:#770088;stroke-width:1;stroke-linecap:square;stroke-dasharray:none;stroke-opacity:1"
         d="m 336.25466,425.86107 c -3.48121,1.48449 -6.91493,3.09304 -10.44019,4.47952 -0.78933,0.37637 -1.71805,0.6001 -2.3951,1.14325 0.1493,10.51816 0.0265,21.04172 0.23453,31.55804 1.32582,-1.05484 3.04853,-1.48284 4.56509,-2.21827 4.53329,-1.94569 9.12154,-3.76847 13.64853,-5.72396 0.35581,-0.27279 -0.48082,-0.45199 -0.61019,-0.64757 -4.39067,-2.61785 -7.42956,-7.60916 -7.15894,-12.78756 0.12709,-3.91261 1.00908,-7.75109 1.57187,-11.61452 0.20567,-1.39178 0.49572,-2.81393 0.61253,-4.19388 z"
         id="path102"
         transform="translate(-167.53157,-332.124)" /><path
         style="fill:#770088;fill-opacity:1;stroke:#770088;stroke-width:1;stroke-linecap:square;stroke-dasharray:none;stroke-opacity:1"
         d="m 396.95066,425.62181 c 0.27205,2.99707 2.5282,5.7077 5.47966,6.39344 2.62748,0.76882 5.33168,1.23104 7.97305,1.95435 6.69486,1.61277 13.33999,3.43856 20.0676,4.91088 2.42203,0.64542 5.07859,-0.34275 6.68741,-2.21751 1.84867,-1.81997 2.30326,-4.65231 1.5866,-7.08175 -0.33505,-1.40211 -0.69666,-2.79771 -1.04461,-4.19665 -13.58323,-0.0127 -27.16647,-0.0255 -40.74971,-0.0383 0,0.0918 0,0.18367 0,0.2755 z"
         id="path103"
         transform="translate(-167.53157,-332.124)" /><path
         style="fill:#770088;fill-opacity:1;stroke:#770088;stroke-width:1;stroke-linecap:square;stroke-dasharray:none;stroke-opacity:1"
         d="m 399.28656,430.58959 c 0.75597,1.61397 0.97305,3.4096 0.99239,5.18003 0.0718,0.34305 -0.0524,0.84231 0.1292,1.11866 1.46961,-0.91528 2.71022,-2.18782 4.0886,-3.24328 0.85384,-0.52736 0.99969,-0.89805 -0.12303,-0.98802 -1.73294,-0.42608 -3.51649,-0.86421 -4.9422,-1.99897 -0.0482,-0.0132 -0.0914,-0.0688 -0.14496,-0.0684 z"
         id="path104"
         transform="translate(-167.53157,-332.124)" /><path
         style="fill:#770088;fill-opacity:1;stroke:#770088;stroke-width:0.115242;stroke-linecap:square;stroke-dasharray:none;stroke-opacity:1"
         d="m 396.40236,425.36004 c -0.45865,0.10431 -0.6724,0.67264 -1.1227,0.86566 -0.20572,0.24875 -0.85128,0.47795 -0.8166,0.79544 1.12648,0.42954 2.21677,0.97357 3.20246,1.66673 0.24695,-0.12773 -0.26385,-0.62648 -0.25299,-0.85958 -0.39288,-0.76109 -0.38714,-1.66805 -0.71171,-2.42954 -0.0877,-0.0552 -0.20032,-0.0383 -0.29846,-0.0387 z"
         id="path105"
         transform="translate(-167.53157,-332.124)" /><path
         style="fill:#770088;fill-opacity:1;stroke:#770088;stroke-width:1;stroke-linecap:square;stroke-dasharray:none;stroke-opacity:1"
         d="m 362.43752,455.22277 c 0.58838,2.04936 0.22437,4.21122 -0.1445,6.27078 0.0349,0.46147 0.72845,-0.31957 0.97134,-0.30169 1.53631,-0.8511 3.17011,-1.59112 4.63657,-2.53322 -1.71241,-0.98572 -3.68844,-1.60315 -5.04228,-3.11851 -0.13706,-0.10193 -0.26203,-0.25563 -0.42113,-0.31736 z"
         id="path106"
         transform="translate(-167.53157,-332.124)" /><path
         style="fill:#770088;fill-opacity:1;stroke:#770088;stroke-width:1;stroke-linecap:square;stroke-dasharray:none;stroke-opacity:1"
         d="m 321.42127,472.14697 c -0.0762,1.11856 -0.002,2.27522 -0.42636,3.34339 -0.28826,1.02496 -0.7976,2.00614 -0.97915,3.0493 2.08304,-0.60462 4.20698,-1.20013 6.24786,-1.9215 -1.14445,-1.01068 -2.50455,-1.7889 -3.52389,-2.95029 -0.50581,-0.44147 -0.75476,-1.16934 -1.31846,-1.5209 z"
         id="path107"
         transform="translate(-167.53157,-332.124)" /><path
         style="fill:#770088;fill-opacity:1;stroke:#770088;stroke-width:1;stroke-linecap:square;stroke-dasharray:none;stroke-opacity:1"
         d="m 314.33545,466.43355 c -2.46646,0.2031 -4.87604,0.82969 -7.30949,1.25777 -7.60036,1.49064 -15.20116,2.98414 -22.77636,4.59787 -1.14684,0.21019 -2.26407,0.62909 -3.14085,1.41942 -1.60085,1.30814 -2.43172,3.37244 -2.45929,5.41261 0.0237,0.56593 -0.62154,0.97994 -0.32451,1.55472 0.37392,1.42192 1.19125,2.67981 2.22176,3.715 1.98991,2.13525 3.98424,4.26706 5.93789,6.43706 4.52772,4.9453 8.98001,9.96204 13.59055,14.83008 1.48706,1.09026 3.35101,1.70138 5.20074,1.45187 2.46073,-0.21214 4.77802,-1.85128 5.77049,-4.11311 3.06865,-8.16353 5.91794,-16.41251 8.91574,-24.59899 0.3261,-1.33522 0.90651,-2.60903 1.23561,-3.93748 0.0207,-0.84388 0.1892,-1.73002 0.12112,-2.54852 -1.04917,-1.34674 -1.73677,-2.99106 -3.12302,-4.0547 -1.07464,-0.86964 -2.46998,-1.42493 -3.86038,-1.4236 z"
         id="path108"
         transform="translate(-167.53157,-332.124)" /><path
         style="fill:#770088;fill-opacity:1;stroke:#770088;stroke-width:1;stroke-linecap:square;stroke-dasharray:none;stroke-opacity:1"
         d="m 239.59204,473.83498 c -2.36369,0.64482 -4.23769,2.65521 -4.80542,5.02697 -0.11132,0.36783 -0.30648,0.7797 -0.66464,0.91834 -0.2226,1.63684 0.31189,3.28479 1.198,4.65246 1.12019,1.98335 2.40719,3.86156 3.54729,5.8346 3.83995,6.33003 7.58248,12.72052 11.50845,18.99754 1.84907,2.31306 5.19376,3.3322 7.98744,2.26863 1.72412,-0.58764 3.20705,-1.83226 4.03543,-3.46071 4.34872,-7.08937 8.54805,-14.27202 12.91271,-21.34994 0.84744,-1.40082 1.82486,-2.76564 2.33134,-4.3366 0.16654,-0.68422 0.37845,-1.41725 0.25862,-2.11721 -0.55462,-0.53151 -0.7098,-1.28444 -0.88046,-2.00044 -0.71559,-2.24919 -2.7054,-3.95292 -4.93131,-4.59889 -10.62064,-0.006 -21.24129,-0.0125 -31.86193,-0.0189 -0.21184,0.0614 -0.42368,0.12276 -0.63552,0.18414 z"
         id="path109"
         transform="translate(-167.53157,-332.124)" /><path
         style="fill:#770088;fill-opacity:1;stroke:#770088;stroke-width:1;stroke-linecap:square;stroke-dasharray:none;stroke-opacity:1"
         d="m 278.05787,480.56095 c -0.11899,0.56203 -0.12451,1.19462 -0.31927,1.76091 -0.45466,1.59065 -1.50462,2.94793 -2.25541,4.37379 1.19091,0.0451 2.39202,-0.19434 3.58508,-0.27077 0.96554,-0.10846 1.96619,-0.17448 2.90932,-0.32463 -1.33943,-1.56841 -3.01656,-2.982 -3.62225,-5.03302 -0.0875,-0.15473 -0.12149,-0.43233 -0.29747,-0.50628 z"
         id="path110"
         transform="translate(-167.53157,-332.124)" /><path
         style="fill:#770088;fill-opacity:1;stroke:#770088;stroke-width:1;stroke-linecap:square;stroke-dasharray:none;stroke-opacity:1"
         d="m 233.89264,479.90252 c -0.28701,0.55871 -0.30814,1.25433 -0.61703,1.82412 -0.68114,1.70537 -2.22888,2.85353 -3.24237,4.31711 1.7626,0.34187 3.57674,0.42179 5.36361,0.61679 0.34448,-0.006 1.00084,0.15989 1.14167,-7.8e-4 -1.08237,-1.89365 -2.55063,-3.76413 -2.54355,-6.05281 -0.0332,-0.20972 0.0595,-0.54932 -0.10233,-0.70443 z"
         id="path111"
         transform="translate(-167.53157,-332.124)" /><path
         style="fill:#770088;fill-opacity:1;stroke:#770088;stroke-width:1;stroke-linecap:square;stroke-dasharray:none;stroke-opacity:1"
         d="m 197.81289,466.49069 c -2.38021,-0.0951 -4.70574,1.33608 -5.79459,3.4397 -0.35998,0.73366 -1.09603,1.23997 -1.34694,2.02145 -0.30455,1.59969 0.10273,3.22049 0.69621,4.70388 2.8898,7.72471 5.60187,15.51646 8.41103,23.27152 0.66538,1.77394 1.12833,3.73817 2.56229,5.08421 1.6581,1.70903 4.17618,2.49669 6.51176,2.02095 1.57864,-0.3058 3.04688,-1.14839 4.06422,-2.40072 5.82224,-6.25761 11.54253,-12.60961 17.26614,-18.95733 1.25917,-1.53968 2.84664,-2.94773 3.35152,-4.95058 0.0353,-0.41649 0.5429,-0.95391 0.0524,-1.24047 -0.32543,-0.39402 -0.16461,-0.97774 -0.33767,-1.44346 -0.24893,-1.59111 -0.95802,-3.13509 -2.21521,-4.1786 -1.3104,-1.31968 -3.21484,-1.62634 -4.95934,-1.96397 -8.99161,-1.82868 -17.98802,-3.6414 -27.00286,-5.34881 -0.41729,-0.0541 -0.83874,-0.0601 -1.25893,-0.0578 z"
         id="path112"
         transform="translate(-167.53157,-332.124)" /><path
         style="fill:#770088;fill-opacity:1;stroke:#770088;stroke-width:0.0814883;stroke-linecap:square;stroke-dasharray:none;stroke-opacity:1"
         d="m 150.41916,425.33257 c -3.81178,3.02749 -9.1648,3.955 -13.76685,2.35627 -1.72038,-0.5657 -3.28735,-1.50911 -4.72129,-2.60249 -5.47034,0.004 -10.94301,-0.10114 -16.41194,0.009 0.65878,0.67196 1.56786,1.17721 2.32103,1.78297 0.69801,0.34642 -0.3792,0.31478 -0.68076,0.47228 -3.00843,0.83603 -5.23723,3.77633 -5.26064,6.8947 -0.40824,9.4988 -0.93314,18.99288 -1.27758,28.4943 -0.14852,3.26966 2.3475,6.36829 5.51405,7.09045 1.84022,0.45564 3.81441,0.0992 5.45767,-0.81784 7.43589,-3.45456 14.81882,-7.02658 22.26729,-10.45142 1.3934,-0.60861 2.79999,-1.23558 4.0733,-2.07238 1.75431,-1.30691 2.84892,-3.42307 2.96,-5.6028 0.4154,0.30314 0.8308,0.60628 1.2462,0.90942 -1.28577,1.17642 -2.3981,2.65677 -2.66264,4.42235 -0.40748,2.19679 0.29554,4.37753 0.54246,6.54986 1.26571,8.22567 2.44896,16.46497 3.75038,24.68453 0.76815,3.245 3.99542,5.81783 7.37326,5.51466 1.50943,0.0325 2.95115,-0.57964 4.10893,-1.52156 6.81576,-4.89746 13.49205,-9.99149 20.29193,-14.90715 1.23444,-0.86704 2.48884,-1.74204 3.56675,-2.80213 0.63948,-0.67064 1.06263,-1.50256 1.46165,-2.32909 -0.54417,-1.31749 0.0858,-2.77593 -0.35937,-4.12137 -0.51214,-2.02379 -1.95704,-3.84927 -3.94139,-4.58625 -5.47077,-2.41615 -11.02449,-4.64015 -16.52555,-6.98541 -0.5389,-0.071 -0.83004,-0.74636 -0.41221,-1.14656 0.58925,-0.60258 1.44248,-0.85792 2.08152,-1.40985 2.92811,-2.10143 4.97623,-5.39987 5.62676,-8.93933 0.55631,-2.79293 -0.135,-5.61058 -0.50072,-8.37966 -0.4828,-3.36457 -1.15771,-6.70317 -1.52553,-10.08298 -0.0449,-0.24143 0.009,-0.59344 0.0623,-0.76319 -5.18103,0.1225 -10.36951,0.056 -15.55345,0.0729 -2.6499,-0.0323 -5.30573,0.0584 -7.9518,-0.0892 -0.38531,-0.30394 -0.64763,-0.10723 -0.98161,0.22245 -0.0574,0.0448 -0.11474,0.0897 -0.17211,0.13454 z"
         id="path113"
         transform="translate(-167.53157,-332.124)" /><path
         style="fill:#770088;fill-opacity:1;stroke:#770088;stroke-width:1;stroke-linecap:square;stroke-dasharray:none;stroke-opacity:1"
         d="m 151.15478,424.91048 c -0.7104,0.3382 -1.26034,0.97322 -1.96782,1.34122 -2.34647,1.41457 -5.08053,2.30938 -7.84229,2.17005 -1.51213,0.063 -3.02969,-0.10724 -4.45926,-0.62114 -1.82098,-0.58484 -3.49552,-1.55247 -5.01551,-2.70296 -5.36834,0.0272 -10.74695,-0.0155 -16.1089,0.0758 0.30247,0.47439 0.91677,0.73851 1.35208,1.10867 0.30784,0.28116 0.81425,0.46832 0.99134,0.83734 -1.2737,0.33339 -2.55945,0.79936 -3.54458,1.71428 -1.57001,1.31957 -2.5729,3.29321 -2.59805,5.35589 -0.34361,6.13376 -0.5829,12.27332 -0.88238,18.40938 -0.12861,3.68468 -0.41417,7.3687 -0.36105,11.05685 0.23145,2.56917 2.09541,4.83783 4.45678,5.80187 2.03447,0.86152 4.4179,0.58535 6.33299,-0.45648 8.09659,-3.77773 16.15318,-7.64152 24.26826,-11.37938 1.59102,-0.73296 3.15775,-1.72343 4.00881,-3.31354 0.58651,-0.98063 0.93668,-2.09398 1.07132,-3.22064 0.16926,-0.36093 0.53682,0.1539 0.73658,0.24351 0.60528,0.2815 0.65702,0.60776 0.0903,0.98404 -1.42962,1.39824 -2.34628,3.34233 -2.27793,5.36345 0.0505,2.06858 0.57176,4.09015 0.8201,6.13909 1.20848,7.91545 2.32871,15.8454 3.64609,23.74359 0.73569,2.96439 3.57626,5.30953 6.65062,5.37105 1.78209,0.17238 3.52936,-0.55933 4.89143,-1.67131 7.12558,-5.14642 14.1396,-10.4453 21.25461,-15.6062 1.42573,-1.07437 2.97115,-2.17311 3.67169,-3.88686 0.26825,-0.55508 -0.0778,-1.17585 -0.003,-1.76468 -0.0156,-1.30404 0.0417,-2.66368 -0.59055,-3.85517 -0.70013,-1.6115 -2.05738,-2.902 -3.71609,-3.48962 -5.35884,-2.38999 -10.82022,-4.54168 -16.19864,-6.88503 -0.35125,-0.15864 -0.89894,-0.36599 -0.69516,-0.86053 0.25688,-0.77888 1.19497,-1.00739 1.78569,-1.48 3.41716,-2.2542 5.7161,-6.09223 6.21035,-10.14211 0.27176,-2.80072 -0.42064,-5.56875 -0.77443,-8.33056 -0.4028,-2.82901 -0.98518,-5.63597 -1.26564,-8.48022 0.0606,-0.24634 -0.1567,-0.36297 -0.0949,-0.63695 0.0291,-0.18801 -0.0842,-0.60582 0.15995,-0.61291 -0.20028,-0.30167 -0.7364,-0.14039 -1.06045,-0.19808 -7.06322,0.12178 -14.12894,0.0649 -21.19286,0.017 -0.58859,0.003 -1.17341,-0.0185 -1.74945,-0.13863 z"
         id="path114"
         transform="translate(-167.53157,-332.124)" /><path
         style="fill:#770088;fill-opacity:1;stroke:#770088;stroke-width:1;stroke-linecap:square;stroke-dasharray:none;stroke-opacity:1"
         d="m 190.45634,471.98383 c -0.6047,0.96563 -1.25892,1.9256 -2.18841,2.61574 -0.80169,0.71495 -1.72618,1.28693 -2.53855,1.97848 0.13611,0.20006 0.59122,0.19907 0.82486,0.32786 1.77309,0.53105 3.53112,1.15096 5.32958,1.57518 0.12433,-0.1733 -0.1792,-0.48228 -0.18809,-0.69327 -0.59196,-1.61654 -1.29376,-3.26521 -1.17558,-5.02617 -0.0216,-0.24763 0.0184,-0.56157 -0.0638,-0.77782 z"
         id="path115"
         transform="translate(-167.53157,-332.124)" /><path
         style="fill:#770088;fill-opacity:1;stroke:#770088;stroke-width:1;stroke-linecap:square;stroke-dasharray:none;stroke-opacity:1"
         d="m 149.60634,455.04429 c -0.81315,0.76004 -1.57513,1.62004 -2.61224,2.09387 -0.94373,0.56123 -1.98561,0.94774 -2.93422,1.48652 0.60756,0.50323 1.42985,0.82743 2.12708,1.24278 1.19732,0.63735 2.38972,1.28515 3.59955,1.89818 -0.35424,-2.15408 -0.82026,-4.39809 -0.17905,-6.54835 -0.006,-0.0437 0.0392,-0.1397 -0.001,-0.173 z"
         id="path116"
         transform="translate(-167.53157,-332.124)" /><path
         style="fill:#770088;fill-opacity:1;stroke:#770088;stroke-width:1;stroke-linecap:square;stroke-dasharray:none;stroke-opacity:1"
         d="m 73.653979,427.83403 c -0.217981,1.06891 -0.635279,2.1133 -0.721481,3.19842 -0.06805,1.52253 0.09198,3.10967 0.930454,4.4244 1.511003,2.67446 4.879961,4.27071 7.888291,3.42808 7.89478,-1.8553 15.746781,-3.88858 23.624737,-5.81391 1.81197,-0.50152 3.69754,-0.78347 5.44654,-1.48645 2.50999,-1.13829 4.18478,-3.77403 4.26524,-6.51461 -13.57055,-0.0533 -27.141141,-0.12042 -40.711846,-0.10839 -0.240645,0.95749 -0.48129,1.91498 -0.721935,2.87246 z"
         id="path117"
         transform="translate(-167.53157,-332.124)" /><path
         style="fill:#770088;fill-opacity:1;stroke:#770088;stroke-width:1;stroke-linecap:square;stroke-dasharray:none;stroke-opacity:1"
         d="m 113.00106,430.18144 c -0.8305,0.74106 -1.76156,1.39388 -2.84032,1.72574 -1.12339,0.43243 -2.37195,0.58372 -3.47885,0.9769 1.52512,1.45621 3.19871,2.75958 4.84426,4.07903 0.26145,0.17672 0.10153,-0.5011 0.18087,-0.61633 0.17287,-1.79153 -0.003,-3.71769 0.94917,-5.33125 0.10583,-0.26261 0.31858,-0.58008 0.34487,-0.83409 z"
         id="path118"
         transform="translate(-167.53157,-332.124)" /><path
         style="fill:#770088;fill-opacity:1;stroke:#770088;stroke-width:1;stroke-linecap:square;stroke-dasharray:none;stroke-opacity:1"
         d="m 115.25997,425.04545 c -0.23154,0.89895 -0.28217,1.87045 -0.69376,2.72922 -0.13647,0.43152 -0.50711,0.85061 -0.58013,1.25941 0.83196,-0.57611 1.63051,-1.26947 2.62006,-1.58724 0.40669,-0.17449 0.95055,-0.23396 1.29727,-0.40493 -0.88729,-0.65376 -1.78133,-1.30946 -2.6358,-1.99885 z"
         id="path119"
         transform="translate(-167.53157,-332.124)" /><path
         style="fill:#770088;fill-opacity:1;stroke:#770088;stroke-width:1;stroke-linecap:square;stroke-dasharray:none;stroke-opacity:1"
         d="m 151.26904,451.72778 c -0.0259,0.11923 -0.0481,0.23978 -0.0747,0.35891 0.005,0.009 0.019,-0.017 0.026,-0.0191 0.0719,-0.0686 0.13762,-0.14527 0.22327,-0.19751 0.0124,-0.0102 0.0293,-0.0186 0.0385,-0.0309 -0.0691,-0.0381 -0.14069,-0.0718 -0.20954,-0.11039 -0.001,-3.5e-4 -0.002,-10e-4 -0.003,-10e-4 z"
         id="path120"
         transform="translate(-167.53157,-332.124)" /></g></g></svg>
