<?xml version="1.0" encoding="UTF-8" standalone="no"?>
<!-- Created with Inkscape (http://www.inkscape.org/) -->

<svg
   width="512"
   height="512"
   viewBox="0 0 512 512"
   version="1.1"
   id="svg5"
   xml:space="preserve"
   inkscape:version="1.3 (0e150ed6c4, 2023-07-21)"
   sodipodi:docname="popcorn_progress-2.svg"
   inkscape:export-filename="popcorn.png"
   inkscape:export-xdpi="96"
   inkscape:export-ydpi="96"
   xmlns:inkscape="http://www.inkscape.org/namespaces/inkscape"
   xmlns:sodipodi="http://sodipodi.sourceforge.net/DTD/sodipodi-0.dtd"
   xmlns="http://www.w3.org/2000/svg"
   xmlns:svg="http://www.w3.org/2000/svg"><sodipodi:namedview
     id="namedview7"
     pagecolor="#505050"
     bordercolor="#eeeeee"
     borderopacity="1"
     inkscape:showpageshadow="0"
     inkscape:pageopacity="0"
     inkscape:pagecheckerboard="0"
     inkscape:deskcolor="#505050"
     inkscape:document-units="px"
     showgrid="false"
     inkscape:zoom="1.1697842"
     inkscape:cx="209.86777"
     inkscape:cy="202.17405"
     inkscape:window-width="1920"
     inkscape:window-height="1009"
     inkscape:window-x="1912"
     inkscape:window-y="-8"
     inkscape:window-maximized="1"
     inkscape:current-layer="layer1" /><defs
     id="defs2" /><g
     inkscape:label="Layer 1"
     inkscape:groupmode="layer"
     id="layer1"><path
       style="fill:#fafafa;fill-opacity:1;fill-rule:nonzero;stroke:#ffffff;stroke-width:2;stroke-linecap:butt;stroke-linejoin:bevel;stroke-dasharray:none;stroke-opacity:1;paint-order:normal"
       d="m 22.5,357.00624 c -2.797409,-1.841 -4.085352,-6.01111 -2.672112,-8.65178 0.317838,-0.59388 4.016981,-5.7112 8.220317,-11.37181 l 7.642429,-10.29202 -1.019539,-3.49501 -1.019539,-3.49501 -11.075778,-3.93833 C 8.685341,310.82311 7.505121,310.28083 6.259512,308.26539 4.997931,306.22411 4.935089,302.72564 6.1282945,300.96036 6.6077325,300.25107 11.307002,295.7752 16.571115,291.014 l 9.571116,-8.65672 -0.252702,-3.05364 c -0.138985,-1.6795 -0.508487,-3.4504 -0.821115,-3.93533 -0.312628,-0.48494 -5.503792,-3.85994 -11.53592,-7.5 -6.1569775,-3.71541 -11.4203747,-7.23749 -11.9999999,-8.02998 -1.4075465,-1.92445 -1.4075465,-5.75222 0,-7.67667 0.5796252,-0.79248 5.8430224,-4.31456 11.9999999,-8.02997 6.032128,-3.64007 11.223292,-7.01507 11.53592,-7.5 0.312628,-0.48493 0.68213,-2.25583 0.821115,-3.93533 l 0.252702,-3.05364 -9.571116,-8.65673 c -5.264113,-4.7612 -9.9633825,-9.23706 -10.4428205,-9.94636 -1.1932055,-1.76527 -1.1303635,-5.26374 0.1312175,-7.30502 1.245609,-2.01544 2.425829,-2.55772 16.316266,-7.49689 l 11.075778,-3.93833 1.019539,-3.49501 1.019539,-3.49501 -7.642429,-10.29202 C 19.371843,163.33294 19.25,163.13859 19.25,160.98343 19.25,157.83163 22.301648,154 24.811858,154 c 0.381603,0 8.082898,7.39162 17.113988,16.42582 l 16.420164,16.42582 -1.16942,2.19918 c -0.975225,1.83398 -1.170015,2.94645 -1.173005,6.69918 -0.0032,4.05123 0.14346,4.76545 1.470895,7.16177 1.49433,2.69761 3.59963,4.684 6.77552,6.39282 2.722285,1.46475 10.00464,1.33458 12.94976,-0.23148 l 2.199755,-1.16971 23.924995,23.9211 23.92501,23.92111 -18.8723,18.87719 C 97.997465,285.00526 89.335075,293.5 89.127465,293.5 88.91986,293.5 88.75,277.39375 88.75,257.70833 c 0,-19.68542 -0.16875,-35.71394 -0.375,-35.61893 -0.20625,0.095 -4.47669,2.25015 -9.48986,4.78922 -7.092115,3.59201 -9.17256,4.86669 -9.37485,5.74394 -0.71188,3.08711 -1.259495,13.30067 -1.25987,23.49787 -6.15e-4,16.71063 1.699835,30.87309 5.50865,45.87957 l 1.45941,5.75 -25.107385,25.125 C 36.302036,346.69375 24.777877,357.99851 24.501856,357.9967 24.225835,357.99489 23.325,357.54918 22.5,357.00624 Z"
       id="path67" /><path
       style="fill:#f598c2;fill-opacity:1;fill-rule:nonzero;stroke:#f598c2;stroke-width:1;stroke-linecap:square;stroke-linejoin:miter;stroke-miterlimit:4;stroke-dasharray:none;stroke-opacity:1;paint-order:normal"
       d="m 45.888744,111.46668 c -3.38579,1.72079 -4.988749,6.33476 -2.973126,9.65906 3.414036,7.60483 7.047721,15.10826 10.591097,22.6531 -1.199541,2.01773 -2.129752,4.27877 -3.487198,6.15507 -7.893353,1.32333 -15.847187,2.30299 -23.725019,3.70092 11.155087,10.6386 21.974483,21.62544 32.925695,32.47374 3.346418,-3.57707 8.347887,-5.69335 13.260813,-4.94134 6.085692,0.75229 11.419282,5.66551 12.412894,11.75795 0.93808,4.75134 -0.548425,9.88874 -4.030553,13.28841 -1.45239,0.80527 0.09621,1.55288 0.742726,2.31783 15.497373,15.49759 30.994747,30.99519 46.492117,46.49279 0.11127,1.75655 -1.68091,2.729 -2.63059,3.95779 -11.49262,11.69024 -23.08903,23.28291 -34.908983,34.64243 -0.55702,0.62296 -1.418818,1.05125 -2.258658,0.76988 0,2.45451 0,4.909 0,7.36351 16.918891,0 33.837771,0 50.756661,0 -0.50853,-4.32882 -1.26139,-8.66042 -1.94005,-12.93923 0.95385,-0.17553 2.1356,-0.25645 3.0037,0.0136 2.90714,3.41023 6.17832,6.51874 9.63756,9.36453 8.58674,-8.66955 17.35353,-17.16527 25.75968,-26.01104 0.83435,-0.74271 -1.07121,-0.33782 -1.43222,-0.51601 -8.7183,-0.335 -17.85478,-3.32001 -23.59826,-10.19969 -4.23909,-5.10879 -6.3472,-11.58646 -7.95253,-17.9273 -2.64191,-11.2276 -2.87271,-22.84935 -2.61229,-34.32748 0.0346,-1.57733 0.22634,-3.22511 0.21061,-4.76123 -30.34544,-30.60891 -60.901689,-61.00842 -91.357065,-91.50796 -0.828276,-0.47355 -1.467888,-2.25314 -2.441303,-1.72195 -0.148569,0.0809 -0.297139,0.16173 -0.445708,0.2426 z"
       id="path68" /><path
       style="fill:#7cc0ea;fill-opacity:1;fill-rule:nonzero;stroke:#7cc0ea;stroke-width:1;stroke-linecap:square;stroke-linejoin:miter;stroke-miterlimit:4;stroke-dasharray:none;stroke-opacity:1;paint-order:normal"
       d="m 139.53052,308.24438 c -1.15144,1.15969 -2.22229,2.43995 -3.40113,3.5913 -16.78126,17.08886 -33.76662,33.97589 -50.671949,50.94174 -12.687655,12.72204 -25.41709,25.40944 -38.084394,38.14738 -0.06539,0.51224 0.814997,0.27256 1.125976,0.36353 7.193537,-0.01 14.372561,-0.58137 21.557762,-0.87404 1.587327,-0.0773 3.174712,-0.15339 4.762062,-0.23021 1.423733,1.78105 2.96591,3.51061 4.310303,5.32959 -1.18311,5.73666 -2.743468,11.39185 -4.114435,17.08669 -0.699119,3.0629 -1.63817,6.08643 -2.079168,9.19969 -0.04846,2.07436 0.917612,4.06787 2.419922,5.46947 21.487647,-21.48573 42.975361,-42.97141 64.463131,-64.45702 -0.0511,-21.13698 0.0242,-42.27473 -0.15185,-63.41113 -0.10515,-0.28954 0.14601,-1.02098 -0.13623,-1.15699 z"
       id="path70" /><path
       style="fill:#f598c2;fill-opacity:1;fill-rule:nonzero;stroke:#f598c2;stroke-width:1;stroke-linecap:square;stroke-linejoin:miter;stroke-miterlimit:4;stroke-dasharray:none;stroke-opacity:1;paint-order:normal"
       d="m 88.33673,321.22535 c -0.0025,6.43025 -0.0051,12.86051 -0.0076,19.29076 -5.098696,-10.06721 -9.235875,-20.61416 -12.462066,-31.42499 -0.09678,-0.53203 -0.49976,0.29446 -0.714615,0.36914 -15.264915,14.98565 -30.251823,30.25232 -45.552138,45.20218 -1.251015,1.25442 -2.607713,2.42199 -3.769684,3.75455 8.100503,1.28611 16.222236,2.43958 24.333382,3.65811 1.066971,2.06648 2.164493,4.11697 3.280554,6.15732 -3.716809,7.92001 -7.523652,15.79906 -11.142629,23.7642 -1.100881,3.24322 0.542774,7.08682 3.59381,8.60833 0.172526,0.11421 0.455532,0.29549 0.485347,-0.0181 7.008224,-7.20101 14.140587,-14.28074 21.21984,-21.41199 21.462738,-21.55023 43.002359,-43.02411 64.389999,-64.649 2.38799,-2.38543 4.69359,-4.85211 7.06379,-7.25397 0.17597,-0.25257 0.58785,-0.20968 0.46629,-0.61492 -0.1111,-1.57598 -0.20373,-3.16114 -0.4454,-4.72239 -16.91049,0 -33.82097,0 -50.731461,0 -0.0025,6.43026 -0.0049,12.86051 -0.0074,19.29076 z"
       id="path71" /><path
       style="fill:#7cc0ea;fill-opacity:1;fill-rule:nonzero;stroke:#7cc0ea;stroke-width:1;stroke-linecap:square;stroke-linejoin:miter;stroke-miterlimit:4;stroke-dasharray:none;stroke-opacity:1;paint-order:normal"
       d="m 212.43433,212.6311 c -0.12377,5.57973 -0.0558,11.1739 -0.61304,16.73584 -0.91803,9.89173 -3.06667,19.92512 -8.19954,28.54496 -3.38393,5.66765 -8.68199,10.30969 -15.04632,12.27119 -3.3765,1.13166 -6.93784,1.56465 -10.4887,1.55793 -0.567,0.11561 -1.36069,-0.15228 -1.80963,0.26191 -1.6532,2.22752 -3.89565,3.98742 -5.54419,6.22363 -0.0155,0.40436 -0.25905,0.84596 -0.71436,0.7605 -3.00149,2.61144 -5.71897,5.54025 -8.56967,8.31582 -3.76117,3.75739 -7.51879,7.51833 -11.27847,11.2772 5.11851,3.874 10.43386,7.69517 16.56023,9.80491 8.54896,3.03383 17.7185,3.91405 26.74223,3.77816 2.47086,-0.0345 4.93734,-0.19489 7.39847,-0.40973 18.45947,-18.45948 36.91894,-36.91895 55.37842,-55.37842 -14.60403,-14.57809 -29.16869,-29.22982 -43.81543,-43.7439 z"
       id="path72" /><path
       style="fill:#7cc0ea;fill-opacity:1;fill-rule:nonzero;stroke:#7cc0ea;stroke-width:1;stroke-linecap:square;stroke-linejoin:miter;stroke-miterlimit:4;stroke-dasharray:none;stroke-opacity:1;paint-order:normal"
       d="m 74.531006,75.635498 c -1.325135,1.62781 -1.972225,3.865842 -1.373535,5.920654 1.81412,8.298809 4.166934,16.472991 5.953369,24.777828 -0.002,0.59525 -0.730939,0.96865 -1.00473,1.47712 -1.092511,1.33775 -2.191424,2.67025 -3.287506,4.00506 -8.585015,-0.37629 -17.164034,-0.91896 -25.753419,-1.17724 -0.402747,0.0924 -1.147167,-0.17063 -1.377685,0.2622 16.545342,16.74846 33.2162,33.37362 49.840825,50.04374 14.223815,14.22136 28.423355,28.48996 42.681395,42.6628 0.37828,-2.66546 0.54343,-5.37731 1.02836,-8.03593 1.22865,-7.20574 3.12883,-14.49031 7.11006,-20.70601 3.35746,-5.18835 8.79188,-8.75786 14.65602,-10.50804 1.30336,-0.10767 0.62394,-0.69182 -0.0443,-1.27329 -6.23929,-6.23898 -12.47859,-12.47797 -18.71789,-18.71696 -1.49237,1.77268 -2.90276,3.61232 -4.24194,5.50317 -0.87658,-0.0904 -1.8993,0.0957 -2.68866,-0.15979 -5.58697,-7.84685 -11.24065,-15.65492 -16.77301,-23.53527 0.54863,-1.10306 1.65733,-1.86692 2.44493,-2.8143 0.0409,-0.54925 -1.00258,-1.08702 -1.37875,-1.63185 C 106.06968,106.19077 90.534839,90.652147 75,75.113525 c -0.156331,0.173991 -0.312663,0.347982 -0.468994,0.521973 z"
       id="path73" /><path
       style="fill:#603917;fill-opacity:1;fill-rule:nonzero;stroke:#603917;stroke-width:1;stroke-linecap:square;stroke-linejoin:miter;stroke-miterlimit:4;stroke-dasharray:none;stroke-opacity:1;paint-order:normal"
       d="m 187.3208,122.95182 c -8.89118,0.61929 -17.88246,2.55905 -25.65126,7.08063 -4.4336,2.61486 -8.59608,5.70178 -12.38527,9.18486 -1.54326,1.51611 -3.14601,2.98711 -4.56209,4.62251 -0.1969,0.44147 0.66041,0.77328 0.88895,1.17049 6.11843,6.13195 12.32146,12.18101 18.34925,18.40248 0.29002,0.0941 0.21869,0.70252 0.59056,0.50854 5.75996,-1.38371 11.7612,-1.69791 17.64675,-1.08589 6.59408,0.77929 13.06456,3.62029 17.61551,8.53719 4.36329,4.44139 7.1129,10.2097 8.93898,16.09936 2.24942,7.33514 3.13957,15.00946 3.49951,22.64952 0.0426,0.52718 -0.0456,1.09585 0.082,1.59948 16.77526,0.1 33.55137,0.0405 50.32698,0.0575 0.73168,0 1.46335,0 2.19503,0 -0.0232,-4.14223 -0.33235,-8.27893 -0.69243,-12.40389 -23.58269,-23.56454 -47.12668,-47.16788 -70.74185,-70.69988 -1.95816,-1.89719 -3.82911,-3.89414 -5.8886,-5.68112 -0.0617,-0.0468 -0.13613,-0.0568 -0.212,-0.0418 z"
       id="path74" /><path
       style="fill:#603917;fill-opacity:1;fill-rule:nonzero;stroke:#603917;stroke-width:1;stroke-linecap:square;stroke-linejoin:miter;stroke-miterlimit:4;stroke-dasharray:none;stroke-opacity:1;paint-order:normal"
       d="m 213.07772,211.84201 c -0.88051,-0.16525 -0.23868,0.31499 0.0914,0.65058 14.57582,14.66673 29.25325,29.23238 43.81997,43.90802 -6.98442,7.08794 -14.05319,14.09296 -21.08028,21.1388 5.30946,0 10.61892,0 15.92838,0 3.49477,-6.24062 6.18774,-12.91539 8.1221,-19.79837 3.1272,-11.07961 4.52221,-22.58988 4.88321,-34.0769 0.0806,-3.91714 0.044,-7.8354 0.0573,-11.75308 -17.27405,-0.0246 -34.54809,-0.0706 -51.82216,-0.0691 z"
       id="path75" /><path
       style="fill:#603917;fill-opacity:1;fill-rule:nonzero;stroke:#603917;stroke-width:1;stroke-linecap:square;stroke-linejoin:miter;stroke-miterlimit:4;stroke-dasharray:none;stroke-opacity:1;paint-order:normal"
       d="m 218.91636,294.53155 c -5.63611,5.65678 -11.31664,11.28455 -16.90358,16.98092 0.69166,0.13064 1.45137,-0.14634 2.16094,-0.20727 9.7022,-1.51049 19.07586,-5.21414 27.07474,-10.92813 4.10262,-2.87505 7.81094,-6.2731 11.21165,-9.94399 3.59994,-3.86307 6.65416,-8.2051 9.31082,-12.76109 -5.3166,-0.0151 -10.63319,-0.0301 -15.94978,-0.0451 -5.63493,5.63487 -11.26986,11.26974 -16.90479,16.90461 z"
       id="path76" /><path
       style="fill:#603917;fill-opacity:1;fill-rule:nonzero;stroke:#603917;stroke-width:1;stroke-linecap:square;stroke-linejoin:miter;stroke-miterlimit:4;stroke-dasharray:none;stroke-opacity:1;paint-order:normal"
       d="m 111.05668,46.629342 c -0.7948,2.043526 -0.30424,4.264707 -0.30344,6.389159 0.31025,7.272755 0.73851,14.541229 1.01383,21.814838 -1.79491,1.449339 -3.5757,2.916044 -5.34577,4.395594 -8.106386,-2.005823 -16.190934,-4.102068 -24.314394,-6.037583 -2.026495,-0.54657 -4.281477,-0.263422 -6.012768,0.962154 -0.139568,0.168686 -0.837034,0.386645 -0.486021,0.650659 14.40291,14.572888 28.919093,29.033447 43.391063,43.537697 1.50733,1.49172 3.0071,3.04185 4.5206,4.49602 3.94928,-3.75465 7.92582,-7.48684 12.12352,-10.96576 7.34973,-6.16741 15.19553,-11.73402 23.40382,-16.699399 0.52355,-0.151943 0.45541,-0.439823 0.057,-0.713312 -6.76952,-6.971479 -13.68793,-13.796933 -20.54217,-20.684913 -9.13374,-9.13636 -18.26989,-18.2703 -27.40463,-27.405658 -0.0335,0.08683 -0.0671,0.173669 -0.10064,0.260504 z"
       id="path77" /><path
       style="fill:#603917;fill-opacity:1;fill-rule:nonzero;stroke:#603917;stroke-width:1;stroke-linecap:square;stroke-linejoin:miter;stroke-miterlimit:4;stroke-dasharray:none;stroke-opacity:1;paint-order:normal"
       d="m 139.76218,373.74771 c -21.37552,21.26653 -42.663833,42.62059 -63.994204,63.9324 1.645821,1.06229 3.688819,1.78379 5.648469,1.25063 5.623446,-1.23512 11.183932,-2.74019 16.775912,-4.10857 2.737633,-0.68616 5.475253,-1.37233 8.212883,-2.05849 1.77332,1.46716 3.53655,2.94742 5.35337,4.36089 -0.18621,5.69977 -0.532,11.39522 -0.78556,17.09304 -0.11367,3.02747 -0.34843,6.05393 -0.35935,9.08321 0.077,0.59454 0.0421,1.31251 0.42192,1.79866 11.70941,-11.59942 23.3402,-23.27878 34.98839,-34.93992 1.80316,-1.83477 3.67413,-3.63648 5.42718,-5.49999 -0.25351,-0.1025 -0.52496,0.3408 -0.74785,0.46128 -3.47571,2.85777 -8.27847,3.99229 -12.66146,2.95617 -4.94898,-1.07922 -9.13708,-4.94606 -10.64333,-9.77751 -0.5823,-1.58548 -0.7021,-3.27717 -0.64179,-4.9514 -0.0827,-2.66552 0.88285,-5.27852 2.27927,-7.51461 2.75532,-4.3726 7.99931,-7.05101 13.16089,-6.62996 5.54875,0.13695 10.7136,3.94279 12.74431,9.06842 1.92021,4.64005 1.21281,10.22787 -1.7934,14.24972 -0.29241,0.52047 -0.88072,0.90949 -1.061,1.46255 0.53284,-0.33801 0.98828,-0.94965 1.48919,-1.38941 6.17826,-6.12481 12.31537,-12.29094 18.47034,-18.4391 -0.73348,-4.50098 -1.38074,-9.01824 -2.18906,-13.50571 -0.72557,-2.75338 -2.16614,-5.34044 -4.29815,-7.25206 -3.14624,-3.01938 -7.73313,-4.38265 -12.02953,-3.72527 -4.54563,0.65324 -9.07349,1.42462 -13.61087,2.13235 -0.0366,-2.69896 0.021,-5.40464 -0.11134,-8.0991 z"
       id="path78" /><path
       style="fill:#000000;fill-opacity:1;fill-rule:nonzero;stroke:#000000;stroke-width:1;stroke-linecap:square;stroke-linejoin:miter;stroke-miterlimit:4;stroke-dasharray:none;stroke-opacity:1;paint-order:normal"
       d="m 172.089,404.99782 c -14.79567,14.5162 -29.37651,29.24895 -44.03825,43.89995 -5.51981,5.56318 -11.1104,11.05807 -16.54027,16.70932 -0.4876,0.27717 0.0354,0.68865 0.18065,0.99999 1.77818,2.96942 5.91414,4.33774 9.05357,2.7753 7.70609,-3.53964 15.35083,-7.21095 23.02205,-10.82519 2.03472,1.13166 4.12613,2.16808 6.14714,3.31871 0.44168,2.6393 0.79138,5.33383 1.2036,7.99318 0.89785,5.91657 1.73601,11.84434 2.69205,17.75079 0.057,0.64378 0.47921,-0.17954 0.70593,-0.30036 16.89524,-16.82543 33.73595,-33.70551 50.6016,-50.56058 -10.16978,-2.89907 -20.12738,-6.58104 -29.67241,-11.13952 -1.11492,-6.86421 -2.11634,-13.74794 -3.32648,-20.59604 -0.006,-0.003 -0.007,-0.0678 -0.0292,-0.0256 z"
       id="path79" /><path
       style="fill:#000000;fill-opacity:1;fill-rule:nonzero;stroke:#000000;stroke-width:1;stroke-linecap:square;stroke-linejoin:miter;stroke-miterlimit:4;stroke-dasharray:none;stroke-opacity:1;paint-order:normal"
       d="m 192.35359,122.78781 c -1.29653,0.0286 -2.64286,-0.0328 -3.90981,0.1 4.27346,4.40634 8.68497,8.67836 13.00987,13.03473 20.83954,20.78441 41.62081,41.62733 62.49398,62.37797 0.25648,0.11762 -0.005,-0.56072 0.0441,-0.68926 -1.4967,-13.65275 -4.64036,-27.34923 -11.2194,-39.50624 -4.25679,-7.89504 -10.05862,-14.93915 -16.8961,-20.73478 -7.77102,-6.54598 -17.19419,-11.09801 -27.15409,-13.11037 -5.32683,-1.1062 -10.77671,-1.56889 -16.21408,-1.47221 l -0.0884,1.2e-4 z"
       id="path80" /><path
       style="fill:#000000;fill-opacity:1;fill-rule:nonzero;stroke:#000000;stroke-width:1;stroke-linecap:square;stroke-linejoin:miter;stroke-miterlimit:4;stroke-dasharray:none;stroke-opacity:1;paint-order:normal"
       d="m 153.81938,24.483918 c -0.42036,1.895943 -0.61426,3.867347 -0.93602,5.793546 -1.00011,6.618531 -1.94239,13.254744 -2.99433,19.859963 -2.0198,1.110614 -4.04879,2.214232 -6.11088,3.244474 -6.1498,-2.785429 -12.23905,-5.747366 -18.36996,-8.591286 -1.91347,-0.861606 -3.78823,-1.824276 -5.73865,-2.595192 -2.58801,-0.645062 -5.50011,0.187117 -7.25676,2.22145 -0.38555,0.426338 -0.68424,0.919386 -1.006,1.39315 15.6658,15.706159 31.37711,31.367201 46.99316,47.122819 0.55241,0.541099 1.06824,1.13829 1.68258,1.605918 6.96761,-4.10051 14.17424,-7.799144 21.60748,-10.982659 7.50216,-3.223791 15.20534,-5.99045 23.06731,-8.199338 C 187.78092,58.398682 170.84517,41.399606 153.82697,24.483572 Z"
       id="path81" /><path
       style="fill:#000000;fill-opacity:1;fill-rule:nonzero;stroke:#000000;stroke-width:1;stroke-linecap:square;stroke-linejoin:miter;stroke-miterlimit:4;stroke-dasharray:none;stroke-opacity:1;paint-order:normal"
       d="m 279.96875,350.4375 c 0.009,3.79154 -0.0123,7.58428 0.047,11.375 7.63264,-7.54917 15.19814,-15.16633 22.79663,-22.75 -7.61455,0 -15.22909,0 -22.84363,0 0,3.79167 0,7.58333 0,11.375 z"
       id="path82" /><path
       style="fill:#ff0000;fill-opacity:1;fill-rule:nonzero;stroke:#ff0000;stroke-width:1;stroke-linecap:square;stroke-linejoin:miter;stroke-miterlimit:4;stroke-dasharray:none;stroke-opacity:1;paint-order:normal"
       d="m 255.81396,0.11450195 c -2.65018,-0.0459146 -5.00955,1.68897465 -6.24511,3.95361325 -4.37261,7.0065408 -8.47542,14.1797608 -12.85669,21.1801758 -2.3083,0.207878 -4.61435,0.440228 -6.92139,0.661621 -6.01583,-6.519907 -11.84441,-13.217247 -17.99292,-19.6123046 -2.67656,-2.0437288 -6.81425,-1.8906102 -9.19678,0.5437012 -1.08593,0.8948685 -1.72909,2.151275 -2.12099,3.4810134 -2.84191,7.613662 -5.4773,15.307222 -8.31309,22.920109 -0.88618,0.65412 -2.10611,0.693109 -3.12245,1.104469 -1.20432,0.364861 -2.40441,0.74347 -3.60606,1.116967 -7.06693,-5.19819 -14.05819,-10.505667 -21.19629,-15.603271 -2.60772,-1.392242 -6.06198,-1.045346 -8.20948,1.037109 -0.80105,0.819385 -1.68651,1.747439 -1.94775,2.885986 15.88264,16.053569 31.92301,31.951389 47.88797,47.923393 1.14688,1.145002 2.29376,2.290003 3.44064,3.435006 5.22301,-1.434254 10.50534,-2.686921 15.82618,-3.6875 1.32792,0.789275 2.30282,2.087031 3.45015,3.117766 3.35947,3.344441 6.70578,6.702073 10.05912,10.052644 14.16667,0 28.33334,0 42.5,0 4.41699,-4.415853 8.83399,-8.831706 13.25098,-13.247559 14.45521,2.727138 28.57941,7.147709 42.0288,13.102969 1.18001,0.322919 2.48125,0.05874 3.71021,0.14459 4.98283,0 9.96566,0 14.94849,0 0,-21.886881 0,-43.773763 0,-65.660645 -1.87218,0.06415 -3.65028,0.820181 -5.0566,2.04506 -6.56366,4.769164 -13.01561,9.69405 -19.62309,14.40123 -2.21664,-0.630931 -4.45205,-1.281651 -6.61401,-2.05127 -3.10914,-8.258461 -5.90826,-16.635309 -9.09303,-24.8635254 -1.42591,-2.241204 -3.97886,-3.8609744 -6.70043,-3.611084 -2.01244,0.06271 -3.89363,1.12178 -5.12814,2.6898796 -5.67074,6.0357708 -11.15576,12.2427768 -16.7637,18.3362438 -2.28931,-0.230727 -4.59279,-0.444944 -6.87452,-0.675538 -4.62337,-7.207559 -8.78739,-14.702053 -13.3994,-21.9167421 -1.31167,-2.0514214 -3.67413,-3.33393738 -6.12062,-3.20410695 z m 0.4502,46.16235305 c 5.81637,0.01373 11.3436,3.889845 13.40206,9.318867 2.38506,5.906799 0.39668,13.262598 -4.75997,17.047588 -4.75253,3.679894 -11.79337,3.973056 -16.82715,0.679004 -4.83066,-2.965273 -7.44542,-8.930362 -6.59473,-14.50078 0.74416,-5.753634 5.2693,-10.750973 10.90896,-12.091959 1.26317,-0.318354 2.56825,-0.471644 3.87083,-0.45272 z"
       id="path83" /><path
       style="fill:#ff0000;fill-opacity:1;fill-rule:nonzero;stroke:#ff0000;stroke-width:1;stroke-linecap:square;stroke-linejoin:miter;stroke-miterlimit:4;stroke-dasharray:none;stroke-opacity:1;paint-order:normal"
       d="m 351.84082,19.00293 c -0.21245,5.133569 -0.0966,10.286932 -0.14441,15.428216 -0.0164,16.731278 -0.006,33.46257 -0.009,50.193854 28.83016,0 57.66032,0 86.49048,0 0.65339,-2.425883 1.47952,-5.168198 0.19433,-7.542725 -1.42939,-2.967651 -5.04935,-4.953239 -8.28906,-3.87915 -8.19517,1.91594 -16.34486,4.019441 -24.51318,6.04541 -1.76253,-1.549 -3.70568,-2.913684 -5.38257,-4.545899 0.36993,-8.53296 0.91058,-17.059806 1.16619,-25.596922 0.0867,-4.031409 -3.88421,-7.609763 -7.89255,-7.050447 -1.99295,0.145973 -3.66564,1.39256 -5.4821,2.106793 -6.59441,3.052225 -13.13867,6.260297 -19.75345,9.238819 -2.06346,-1.036259 -4.11091,-2.107145 -6.13501,-3.218262 -1.37989,-8.67958 -2.51611,-17.399418 -4.0254,-26.057617 -0.83313,-2.738887 -3.39476,-4.794854 -6.22436,-5.12207 z"
       id="path84" /><path
       style="fill:#f57f29;fill-opacity:1;fill-rule:nonzero;stroke:#f57f29;stroke-width:1;stroke-linecap:square;stroke-linejoin:miter;stroke-miterlimit:4;stroke-dasharray:none;stroke-opacity:1;paint-order:normal"
       d="m 402.7583,85.146972 c -22.4163,0.0343 -44.83323,-0.02719 -67.24902,0.13794 -0.5661,-0.05112 -1.12703,0.0183 -0.29712,0.348877 4.82671,2.441278 9.69593,4.81075 14.36671,7.547546 26.41716,15.134935 49.01987,36.834615 65.2458,62.594235 2.08294,3.34113 4.15652,6.7115 5.94364,10.2154 -0.3918,1.43813 -1.25955,2.69881 -1.83081,4.07006 22.98191,0.11418 45.96491,0.0435 68.94726,0.064 1.50918,-2.14566 3.24753,-4.1556 4.51808,-6.45508 1.38511,-3.10055 0.1974,-7.04313 -2.68545,-8.84586 -1.90782,-1.37174 -4.36289,-1.23123 -6.56705,-1.69705 -7.1054,-1.0872 -14.21809,-2.12599 -21.32759,-3.18585 -1.0548,-2.07411 -2.20414,-4.09951 -3.26025,-6.17212 3.7047,-8.04043 7.62154,-15.98497 11.20215,-24.08154 0.85519,-3.08202 -0.63606,-6.56306 -3.42653,-8.11728 -2.27052,-1.43378 -5.03083,-0.80678 -7.54857,-0.80215 -7.20082,0.36559 -14.40566,0.66244 -21.604,1.07031 -1.40613,-1.87815 -3.07544,-3.56957 -4.37305,-5.51929 1.6672,-7.009753 3.49167,-14.044929 5.17187,-21.012205 -3.70222,-0.240078 -7.42943,-0.100706 -11.14135,-0.155772 -8.02824,-0.01295 -16.05648,-0.0053 -24.08472,-0.0041 z"
       id="path85" /><path
       style="fill:#fff000;fill-opacity:1;fill-rule:nonzero;stroke:#fff000;stroke-width:1;stroke-linecap:square;stroke-linejoin:miter;stroke-miterlimit:4;stroke-dasharray:none;stroke-opacity:1;paint-order:normal"
       d="m 453.0179,170.69982 c -11.49365,0.007 -22.9873,0.0149 -34.48095,0.0223 -4.37624,8.63496 -8.84098,17.22557 -13.14379,25.89744 -0.81043,1.54394 -1.39201,3.2075 -1.56266,4.94984 -0.55988,4.66223 1.31522,9.54473 4.88186,12.60811 1.75066,1.66878 4.06415,2.51651 6.14742,3.67336 9.08467,4.66618 18.22472,9.23464 27.281,13.94967 0.48925,2.64889 0.66027,5.35187 0.93157,8.03146 0.45965,5.36672 0.71982,10.75346 0.68135,16.14068 22.74435,0 45.48869,0 68.23304,0 -0.12457,-2.48516 -1.39788,-5.02847 -3.67295,-6.19184 -7.10248,-4.38789 -14.31693,-8.59737 -21.42951,-12.96478 -0.32757,-1.25318 -0.28647,-2.58317 -0.46915,-3.86618 -0.11077,-1.0385 -0.19398,-2.08054 -0.33964,-3.11494 6.42437,-5.85663 12.90976,-11.64861 19.27401,-17.56983 2.42574,-2.62763 2.39889,-7.09004 -0.0971,-9.66654 -1.06171,-1.24702 -2.60112,-1.87253 -4.1169,-2.3681 -7.49917,-2.73587 -15.02659,-5.39347 -22.53295,-8.10939 -0.69221,-2.22618 -1.33647,-4.46734 -2.03932,-6.69041 3.64521,-4.91764 7.29043,-9.83528 10.93564,-14.75291 -11.49365,0.007 -22.9873,0.0147 -34.48095,0.0221 z m -11.41729,10.36095 c 5.50819,0.009 10.8905,3.36217 13.16997,8.40496 2.34959,4.9881 1.68672,11.33345 -1.94556,15.54599 -2.14125,2.62773 -5.18621,4.49566 -8.52545,5.12139 -1.53381,0.25657 -3.1068,0.20476 -4.65495,0.16348 -4.52142,-0.59349 -8.68915,-3.37446 -10.92044,-7.35824 -2.93358,-5.14327 -2.3829,-12.0925 1.50541,-16.60035 2.75601,-3.34782 7.03257,-5.34196 11.37102,-5.27723 z"
       id="path86" /><path
       style="fill:#58b947;fill-opacity:1;fill-rule:nonzero;stroke:#58b947;stroke-width:1;stroke-linecap:square;stroke-linejoin:miter;stroke-miterlimit:4;stroke-dasharray:none;stroke-opacity:1;paint-order:normal"
       d="m 443.81127,257.59375 c -0.22113,16.71375 -2.54298,33.40973 -7.10346,49.4972 -3.10634,11.0255 -7.23509,21.76102 -12.30156,32.03405 -40.25879,0 -80.51758,0 -120.77637,0 -0.69516,0.74769 -1.62771,1.50084 -2.16186,2.28101 32.09728,0.11804 64.19518,0.0767 96.29272,0.094 29.941,0 59.882,0 89.823,0 -3.66512,-4.98407 -7.36153,-9.94509 -11.0415,-14.91821 0.71472,-2.23656 1.30346,-4.53858 2.13281,-6.72412 8.21119,-3.06229 16.52262,-5.86018 24.70264,-9.0022 2.91468,-1.58237 4.51032,-5.27232 3.44165,-8.44751 -0.44704,-1.74567 -1.81859,-2.96537 -3.09865,-4.13065 -5.82623,-5.42378 -11.7889,-10.69914 -17.64525,-16.08981 0.22592,-2.32947 0.50018,-4.65492 0.67456,-6.98901 7.17531,-4.34072 14.43842,-8.53947 21.54026,-12.99979 1.9892,-1.18364 3.43625,-3.29786 3.63405,-5.60739 -20.51565,-0.15461 -41.03297,-0.0664 -61.54931,-0.0913 -2.1875,0 -4.375,0 -6.5625,0 -4.1e-4,0.36458 -8.1e-4,0.72917 -10e-4,1.09375 z"
       id="path87" /><path
       style="fill:#0054a6;fill-opacity:1;fill-rule:nonzero;stroke:#0054a6;stroke-width:1;stroke-linecap:square;stroke-linejoin:miter;stroke-miterlimit:4;stroke-dasharray:none;stroke-opacity:1;paint-order:normal"
       d="m 290.9563,351.76245 c -3.27916,3.28406 -6.66603,6.57328 -9.85474,9.87793 20.34368,0.14973 40.68888,0.10529 61.0332,0.13835 23.01319,0.0125 46.02637,0.0223 69.03955,0.0338 -5.60926,8.07722 -11.67786,15.87138 -18.52563,22.94067 -0.45967,0.54983 -1.24562,-0.0339 -1.8396,0.021 -10.65107,-1.62651 -21.27639,-3.4211 -31.93043,-5.02573 -3.35624,-0.49014 -6.91825,-0.0676 -9.84094,1.74625 -3.84237,2.25317 -6.64921,6.30445 -7.10446,10.76967 -1.88296,11.03097 -3.52176,22.1045 -5.35366,33.14213 -0.73222,0.84717 -2.09135,0.99738 -2.87695,1.72535 7.27259,0.19905 14.55365,0.0866 21.82959,0.11366 2.96089,-0.0167 5.96499,0.0134 8.89965,-0.0509 -2.40066,-1.30027 -4.63512,-3.02331 -6.08862,-5.37499 -3.05646,-4.63792 -3.19243,-11.01826 -0.19374,-15.71893 2.7404,-4.56162 8.10828,-7.36917 13.42299,-6.93245 3.76436,0.16125 7.356,1.93073 9.88389,4.7081 4.55296,4.751 5.13177,12.66435 1.4101,18.07286 -1.41255,2.14342 -3.4249,3.82313 -5.66338,5.04668 -0.35311,0.36457 0.99568,0.0689 1.2417,0.17768 19.90363,0.13117 39.80798,0.0556 59.71192,0.0765 -1.77488,-7.18401 -3.64949,-14.35258 -5.33448,-21.55322 1.33486,-1.95032 2.90404,-3.73358 4.42774,-5.53858 8.54234,0.39302 17.07891,0.95129 25.62695,1.19702 4.06322,0.12143 7.58272,-3.87921 7.08642,-7.88794 -0.17442,-1.84327 -1.31177,-3.40717 -1.96703,-5.10205 -3.09825,-6.73585 -6.33782,-13.41894 -9.42872,-20.1499 1.05983,-2.06508 2.20107,-4.088 3.25513,-6.15649 8.61846,-1.30777 17.25791,-2.49483 25.85669,-3.92188 3.53262,-0.95311 6.02512,-4.85278 5.13526,-8.4541 -0.42309,-2.20775 -2.12716,-3.83147 -3.32163,-5.64564 -0.49768,-0.67655 -0.99538,-1.3531 -1.49307,-2.02965 -62.40414,-0.002 -124.80827,-0.005 -187.2124,-0.008 -3.2771,3.25415 -6.5542,6.5083 -9.8313,9.76245 z"
       id="path88" /><path
       style="fill:#9f248f;fill-opacity:1;fill-rule:nonzero;stroke:#9f248f;stroke-width:0.176777;stroke-linecap:square;stroke-linejoin:miter;stroke-miterlimit:4;stroke-dasharray:none;stroke-opacity:1;paint-order:normal"
       d="m 376.4225,427.41601 c -3.16038,1.10876 -6.62549,1.41924 -9.88811,0.57107 -8.76353,-0.32213 -17.5402,-0.122 -26.30899,-0.19451 -2.79587,0.0436 -5.62894,-0.0979 -8.40172,0.0603 -26.59661,11.7132 -55.92049,17.1886 -84.95148,15.7213 -13.89111,-0.65573 -27.68804,-2.92058 -41.10413,-6.566 -17.18831,17.18301 -34.37662,34.36603 -51.56493,51.54905 1.53547,3.87818 6.83014,5.74496 10.30757,3.2831 7.05722,-4.85535 13.72795,-10.25707 20.83344,-15.0391 0.83561,-0.4341 1.76694,0.4143 2.63024,0.48303 1.40141,0.42974 2.81087,0.83716 4.20018,1.30407 3.03317,8.27103 5.85487,16.62608 9.03253,24.84024 1.91395,3.49772 6.85913,4.82267 10.17467,2.52321 2.98293,-2.83512 5.65197,-6.01413 8.48863,-9.00465 3.31554,-3.5702 6.58944,-7.26329 9.87785,-10.80643 2.36079,0.10949 4.71007,0.38864 7.06416,0.58972 4.47007,7.31111 8.68357,14.78486 13.37292,21.95853 2.04235,3.54538 7.36863,4.25428 10.37523,1.54587 1.71553,-1.70109 2.70961,-3.99655 4.06419,-5.97991 3.55551,-5.81539 7.02719,-11.68146 10.53922,-17.52311 2.37071,-0.21964 4.74143,-0.43911 7.11216,-0.65842 6.01678,6.71298 12.03478,13.4368 18.34334,19.87667 3.17219,2.17963 7.89806,1.1449 9.91849,-2.1189 2.32163,-5.48445 4.17813,-11.16905 6.23901,-16.76017 1.0092,-2.81604 2.0184,-5.63208 3.02761,-8.44812 2.25549,-0.74246 4.51678,-1.55812 6.85458,-1.97838 7.16678,5.07529 14.06496,10.52853 21.28261,15.52976 2.82314,1.51412 6.62344,0.7275 8.66344,-1.74187 1.87855,-1.99604 1.66188,-4.9295 2.23455,-7.4325 1.12346,-7.00214 2.0628,-14.04782 3.21203,-21.03649 2.00139,-1.23599 4.06436,-2.40096 6.19098,-3.40467 8.14303,3.66052 16.09536,7.75166 24.33407,11.19493 4.47244,1.28155 9.42943,-3.06604 8.71425,-7.68823 -0.31017,-8.28898 -0.64064,-16.57937 -1.18052,-24.85698 1.8577,-1.44555 3.631,-3.1179 5.55845,-4.40733 8.62191,1.98418 17.15335,4.37293 25.79387,6.26245 4.29999,0.26425 8.31293,-3.96994 7.47606,-8.28744 -0.13176,-1.00993 -0.42965,-1.9872 -0.66084,-2.97655 -19.8411,-0.0414 -39.6834,0.0937 -59.52368,-0.0974 -0.79882,-0.006 -1.61298,-0.0226 -2.33193,-0.28623 z"
       id="path89" /><path
       style="fill:#f57f29;fill-opacity:1;fill-rule:nonzero;stroke:#f57f29;stroke-width:1;stroke-linecap:square;stroke-linejoin:miter;stroke-miterlimit:4;stroke-dasharray:none;stroke-opacity:1;paint-order:normal"
       d="m 251.89755,85.166952 c -5.51078,0.02457 -11.04769,-0.02169 -16.54222,0.08995 3.62995,3.802073 7.42201,7.452648 11.21154,11.096733 2.38713,2.153002 5.58937,3.399554 8.79728,3.511414 3.15906,0.138131 6.3701,-0.761782 8.95181,-2.594629 3.04034,-2.493629 5.69187,-5.419049 8.5043,-8.159293 1.31312,-1.315282 2.62624,-2.630564 3.93936,-3.945846 -8.28736,7.69e-4 -16.57471,-0.0017 -24.86207,0.0017 z"
       id="path92" /></g></svg>
